<svg width="35" height="35" viewBox="0 0 35 35" fill="none" xmlns="http://www.w3.org/2000/svg">
<path d="M17.85 33.5417H17.2083C16.0417 33.5417 14.9479 33.0896 14.1167 32.2583C13.2854 31.4271 12.8333 30.3333 12.8333 29.1667V28.9042C12.8333 28.6563 12.7604 28.3938 12.6438 28.175C12.5125 27.9563 12.3375 27.7667 12.1042 27.6354L11.4771 27.2708C11.0396 27.0229 10.4708 27.0229 10.0188 27.2708L9.75625 27.4167C8.79375 27.9708 7.6125 28.1313 6.48958 27.825C5.38125 27.5188 4.40417 26.7896 3.83542 25.7833L3.5 25.2438C2.91667 24.2229 2.75625 23.0563 3.0625 21.9188C3.36875 20.7958 4.08333 19.8479 5.08958 19.2646L5.27917 19.1479C5.52708 19.0021 5.70208 18.8271 5.83333 18.5938C5.96458 18.375 6.02292 18.1125 6.02292 17.8646V17.1063C6.02292 16.8583 5.95 16.6104 5.83333 16.3917C5.73125 16.1875 5.54167 15.9979 5.32292 15.8813L5.03125 15.6917C4.08334 15.1375 3.36875 14.2042 3.0625 13.0667C2.77083 11.9438 2.91667 10.7625 3.5 9.75625L3.82083 9.20208C4.38958 8.21042 5.36667 7.46667 6.475 7.175C7.59792 6.86875 8.77917 7.02917 9.78542 7.6125L9.96042 7.7C10.5 8.00625 11.025 7.97708 11.4771 7.71458L12.1042 7.36458C12.3229 7.23333 12.5125 7.04375 12.6438 6.825C12.7604 6.60625 12.8333 6.34375 12.8333 6.09583V5.83333C12.8333 4.66667 13.2854 3.57292 14.1167 2.74167C14.9333 1.91042 16.0417 1.45833 17.2083 1.45833H17.85C19.0167 1.45833 20.1104 1.91042 20.9417 2.74167C21.7729 3.57292 22.225 4.66667 22.225 5.83333V6.09583C22.225 6.34375 22.2979 6.60625 22.4146 6.825C22.5458 7.04375 22.7208 7.23333 22.9542 7.35L23.5812 7.71458C24.0187 7.9625 24.5875 7.9625 25.0396 7.71458L25.3021 7.56875C26.2646 7.01458 27.4604 6.85417 28.5833 7.16042C29.7062 7.46667 30.6542 8.18125 31.2375 9.1875L31.5583 9.74167C32.1417 10.7479 32.3021 11.9292 31.9958 13.0521C31.6896 14.175 30.975 15.1229 29.9687 15.7063L29.75 15.8521C29.5021 15.9979 29.3271 16.1729 29.1958 16.3917C29.0646 16.6104 28.9917 16.8729 29.0062 17.1208V17.85C29.0062 18.1125 29.0792 18.3604 29.1958 18.5938C29.3271 18.8125 29.5021 19.0021 29.7354 19.1333L29.9104 19.2208C30.9604 19.8333 31.6896 20.7813 31.9958 21.9042C32.3021 23.0271 32.1417 24.2083 31.5583 25.2146L31.2521 25.7688C30.6542 26.7896 29.7208 27.5188 28.5833 27.8104C27.475 28.1021 26.2646 27.9417 25.2729 27.3729L25.0979 27.2854C24.5729 26.9792 24.0479 27.0083 23.5958 27.2563L22.9688 27.6208C22.7354 27.7521 22.5604 27.9417 22.4292 28.1604C22.2979 28.3792 22.2396 28.6271 22.2396 28.8896V29.1667C22.2396 30.3333 21.7875 31.4271 20.9562 32.2583C20.1104 33.0896 19.0167 33.5417 17.85 33.5417ZM10.7479 24.1646C11.5208 24.1646 12.2646 24.3688 12.9354 24.7479L13.5625 25.1125C14.2188 25.4917 14.7729 26.0458 15.1521 26.7021C15.5313 27.3729 15.7354 28.1167 15.7354 28.8896V29.1667C15.7354 29.5604 15.8813 29.925 16.1583 30.2021C16.45 30.4792 16.8146 30.625 17.2083 30.625H17.85C18.2437 30.625 18.6083 30.4792 18.8854 30.2021C19.1625 29.925 19.3083 29.5604 19.3083 29.1667V28.9042C19.3083 28.1458 19.5125 27.3875 19.8917 26.7167C20.2708 26.0458 20.825 25.5063 21.4958 25.1125L22.1229 24.7479C23.45 23.975 25.1708 23.975 26.4979 24.7479L26.6729 24.8354C27.0375 25.0542 27.4458 25.0979 27.825 24.9958C28.2042 24.8938 28.5104 24.6604 28.7146 24.325L29.0208 23.7708C29.225 23.4208 29.2687 23.0271 29.1812 22.6479C29.0792 22.2833 28.8313 21.9479 28.4958 21.7583L28.3208 21.6708C27.6063 21.2625 27.0521 20.7083 26.6729 20.0375C26.2938 19.3667 26.0896 18.6083 26.0896 17.85V17.1208C26.0896 16.3625 26.2938 15.5896 26.6729 14.9333C27.0521 14.2625 27.6062 13.7083 28.2771 13.3292L28.4813 13.2125C28.8313 13.0083 29.0646 12.6875 29.1667 12.3229C29.2687 11.9583 29.2104 11.55 29.0208 11.2146L28.7 10.6604C28.5104 10.325 28.1896 10.0917 27.8104 9.98958C27.4458 9.8875 27.0375 9.94583 26.7021 10.1354L26.4396 10.2813C25.2 11.0104 23.4354 11.025 22.1083 10.2521L21.4812 9.8875C20.825 9.50833 20.2708 8.95417 19.8917 8.29792C19.5125 7.62708 19.3083 6.86875 19.3083 6.11042V5.83333C19.3083 5.45417 19.1479 5.075 18.8854 4.79792C18.6083 4.53542 18.2292 4.375 17.85 4.375H17.2083C16.8292 4.375 16.45 4.53542 16.1729 4.79792C15.9104 5.075 15.75 5.45417 15.75 5.83333V6.09583C15.75 6.86875 15.5458 7.6125 15.1667 8.28333C14.7875 8.93958 14.2333 9.49375 13.5625 9.8875L12.9354 10.2375C11.5938 11.0104 9.87292 11.0104 8.56042 10.2375L8.38542 10.15C8.00625 9.93125 7.6125 9.8875 7.23333 9.98958C6.86875 10.0771 6.54792 10.325 6.35833 10.6604L6.02292 11.2146C5.83333 11.55 5.78958 11.9438 5.87708 12.3229C5.97917 12.7021 6.22708 13.0083 6.5625 13.1979L6.85417 13.3875C7.4375 13.7229 7.99167 14.2625 8.37083 14.9333C8.75 15.6042 8.96875 16.3479 8.96875 17.1063V17.8646C8.96875 18.6229 8.77917 19.3813 8.38542 20.0521C8.00625 20.7229 7.45208 21.2771 6.78125 21.6563L6.59167 21.7729C6.22708 21.9771 5.99375 22.2979 5.89167 22.6771C5.78958 23.0563 5.84792 23.45 6.0375 23.7854L6.35833 24.3396C6.54792 24.675 6.86875 24.9229 7.24792 25.025C7.62708 25.1271 8.02083 25.0688 8.35625 24.8792L8.61875 24.7333C9.21667 24.3688 9.975 24.1646 10.7479 24.1646Z" fill="white"/>
<path d="M17.5292 23.3333C14.3062 23.3333 11.6958 20.7229 11.6958 17.5C11.6958 14.2771 14.3062 11.6667 17.5292 11.6667C20.7521 11.6667 23.3625 14.2771 23.3625 17.5C23.3625 20.7229 20.7375 23.3333 17.5292 23.3333ZM17.5292 14.5833C15.925 14.5833 14.6125 15.8958 14.6125 17.5C14.6125 19.1042 15.925 20.4167 17.5292 20.4167C19.1333 20.4167 20.4458 19.1042 20.4458 17.5C20.4458 15.8958 19.1333 14.5833 17.5292 14.5833Z" fill="white"/>
</svg>
