<svg width="42" height="42" viewBox="0 0 42 42" fill="none" xmlns="http://www.w3.org/2000/svg">
<path d="M21 3.5C11.3347 3.5 3.5 11.3348 3.5 21C3.5 30.6652 11.3347 38.5 21 38.5C30.6652 38.5 38.5 30.6652 38.5 21C38.5 11.3348 30.6652 3.5 21 3.5Z" fill="url(#paint0_linear_10_285)"/>
<path d="M23.3686 25.6384H27.8976L28.609 21.0377H23.3686V18.5229C23.3686 16.6119 23.9934 14.917 25.781 14.917H28.6536V10.9025C28.1487 10.8343 27.0812 10.6855 25.0644 10.6855C20.8521 10.6855 18.3829 12.9098 18.3829 17.9778V21.0385H14.0525V25.6393H18.382V38.2848C19.2395 38.4125 20.1084 38.5 21 38.5C21.8059 38.5 22.5925 38.4265 23.3686 38.3215V25.6384Z" fill="white"/>
<defs>
<linearGradient id="paint0_linear_10_285" x1="8.74387" y1="8.74387" x2="35.5381" y2="35.5381" gradientUnits="userSpaceOnUse">
<stop stop-color="#2AA4F4"/>
<stop offset="1" stop-color="#007AD9"/>
</linearGradient>
</defs>
</svg>
