<svg width="33" height="33" viewBox="0 0 33 33" fill="none" xmlns="http://www.w3.org/2000/svg">
<path d="M31.02 16.8438C31.02 15.7713 30.9238 14.74 30.745 13.75H16.5V19.6075H24.64C24.2825 21.4913 23.21 23.0862 21.6013 24.1587V27.9675H26.51C29.37 25.3275 31.02 21.45 31.02 16.8438Z" fill="#4285F4"/>
<path d="M16.5 31.625C20.5837 31.625 24.0075 30.2775 26.51 27.9675L21.6012 24.1587C20.2537 25.0662 18.535 25.6162 16.5 25.6162C12.5675 25.6162 9.22625 22.9625 8.03 19.3875H2.9975V23.2925C5.48625 28.2287 10.5875 31.625 16.5 31.625Z" fill="#34A853"/>
<path d="M8.03 19.3737C7.7275 18.4662 7.54875 17.5037 7.54875 16.4999C7.54875 15.4962 7.7275 14.5337 8.03 13.6262V9.72119H2.9975C1.96625 11.7562 1.375 14.0524 1.375 16.4999C1.375 18.9474 1.96625 21.2437 2.9975 23.2787L6.91625 20.2262L8.03 19.3737Z" fill="#FBBC05"/>
<path d="M16.5 7.3975C18.7275 7.3975 20.7075 8.1675 22.2887 9.6525L26.62 5.32125C23.9937 2.87375 20.5837 1.375 16.5 1.375C10.5875 1.375 5.48625 4.77125 2.9975 9.72125L8.03 13.6262C9.22625 10.0512 12.5675 7.3975 16.5 7.3975Z" fill="#EA4335"/>
</svg>
