<svg width="35" height="35" viewBox="0 0 35 35" fill="none" xmlns="http://www.w3.org/2000/svg">
<path d="M15.7655 1.6407C14.9113 0.786432 13.5262 0.786432 12.672 1.6407L0.320352 13.9923C-0.106784 14.4194 -0.106784 15.112 0.320352 15.5391C0.747488 15.9662 1.44001 15.9662 1.86715 15.5391L2.1875 15.2188V26.797C2.1875 28.6091 3.65657 30.0782 5.46875 30.0782H6.67189C6.60016 29.7248 6.5625 29.359 6.5625 28.9845V20.0476C6.11466 19.8897 5.69425 19.6316 5.33606 19.2734C4.05465 17.992 4.05465 15.9144 5.33606 14.633L17.047 2.92211L15.7655 1.6407Z" fill="white"/>
<path d="M19.2345 3.8282C20.0887 2.97393 21.4738 2.97393 22.328 3.8282L26.25 7.75016V4.92195C26.25 4.31789 26.7397 3.8282 27.3438 3.8282H29.5312C30.1353 3.8282 30.625 4.31789 30.625 4.92195V12.1252L34.6796 16.1798C35.1068 16.6069 35.1068 17.2995 34.6796 17.7266C34.2525 18.1537 33.56 18.1537 33.1329 17.7266L32.8125 17.4063V28.9845C32.8125 30.7966 31.3434 32.2657 29.5312 32.2657H12.0312C10.2191 32.2657 8.75 30.7966 8.75 28.9845V17.4062L8.42965 17.7266C8.00251 18.1537 7.30999 18.1537 6.88285 17.7266C6.45572 17.2995 6.45572 16.6069 6.88285 16.1798L19.2345 3.8282Z" fill="white"/>
</svg>
