<svg width="85" height="75" viewBox="0 0 85 75" fill="none" xmlns="http://www.w3.org/2000/svg">
<g filter="url(#filter0_b_9_19)">
<path d="M41.1056 15.4472C41.6686 15.1657 42.3314 15.1657 42.8944 15.4472L68.4223 28.2111C69.8964 28.9482 69.8964 31.0518 68.4223 31.7889L42.8944 44.5528C42.3314 44.8343 41.6686 44.8343 41.1056 44.5528L15.5777 31.7889C14.1036 31.0518 14.1036 28.9482 15.5777 28.2111L41.1056 15.4472Z" fill="#4F46E5"/>
<path d="M41.1056 10.4472C41.6686 10.1657 42.3314 10.1657 42.8944 10.4472L68.4223 23.2111C69.8964 23.9482 69.8964 26.0518 68.4223 26.7889L42.8944 39.5528C42.3314 39.8343 41.6686 39.8343 41.1056 39.5528L15.5777 26.7889C14.1036 26.0518 14.1036 23.9482 15.5777 23.2111L41.1056 10.4472Z" fill="#818CF8"/>
<path d="M41.1056 5.44721C41.6686 5.16569 42.3314 5.16569 42.8944 5.44721L68.4223 18.2111C69.8964 18.9482 69.8964 21.0518 68.4223 21.7889L42.8944 34.5528C42.3314 34.8343 41.6686 34.8343 41.1056 34.5528L15.5777 21.7889C14.1036 21.0518 14.1036 18.9482 15.5777 18.2111L41.1056 5.44721Z" fill="#C7D2FE"/>
</g>
<path d="M10.072 55.636V56.524H7.792V64H6.7V56.524H4.408V55.636H10.072ZM17.0802 57.424L13.1202 67.096H11.9922L13.2882 63.928L10.6362 57.424H11.8482L13.9122 62.752L15.9522 57.424H17.0802ZM19.2699 58.636C19.4859 58.26 19.8059 57.948 20.2299 57.7C20.6619 57.444 21.1619 57.316 21.7299 57.316C22.3139 57.316 22.8419 57.456 23.3139 57.736C23.7939 58.016 24.1699 58.412 24.4419 58.924C24.7139 59.428 24.8499 60.016 24.8499 60.688C24.8499 61.352 24.7139 61.944 24.4419 62.464C24.1699 62.984 23.7939 63.388 23.3139 63.676C22.8419 63.964 22.3139 64.108 21.7299 64.108C21.1699 64.108 20.6739 63.984 20.2419 63.736C19.8179 63.48 19.4939 63.164 19.2699 62.788V67.12H18.1779V57.424H19.2699V58.636ZM23.7339 60.688C23.7339 60.192 23.6339 59.76 23.4339 59.392C23.2339 59.024 22.9619 58.744 22.6179 58.552C22.2819 58.36 21.9099 58.264 21.5019 58.264C21.1019 58.264 20.7299 58.364 20.3859 58.564C20.0499 58.756 19.7779 59.04 19.5699 59.416C19.3699 59.784 19.2699 60.212 19.2699 60.7C19.2699 61.196 19.3699 61.632 19.5699 62.008C19.7779 62.376 20.0499 62.66 20.3859 62.86C20.7299 63.052 21.1019 63.148 21.5019 63.148C21.9099 63.148 22.2819 63.052 22.6179 62.86C22.9619 62.66 23.2339 62.376 23.4339 62.008C23.6339 61.632 23.7339 61.192 23.7339 60.688ZM32.2873 60.46C32.2873 60.668 32.2753 60.888 32.2513 61.12H26.9953C27.0353 61.768 27.2553 62.276 27.6553 62.644C28.0633 63.004 28.5553 63.184 29.1313 63.184C29.6033 63.184 29.9953 63.076 30.3073 62.86C30.6273 62.636 30.8513 62.34 30.9793 61.972H32.1553C31.9793 62.604 31.6273 63.12 31.0993 63.52C30.5713 63.912 29.9153 64.108 29.1313 64.108C28.5073 64.108 27.9473 63.968 27.4513 63.688C26.9633 63.408 26.5793 63.012 26.2993 62.5C26.0193 61.98 25.8793 61.38 25.8793 60.7C25.8793 60.02 26.0153 59.424 26.2873 58.912C26.5593 58.4 26.9393 58.008 27.4273 57.736C27.9233 57.456 28.4913 57.316 29.1313 57.316C29.7553 57.316 30.3073 57.452 30.7873 57.724C31.2673 57.996 31.6353 58.372 31.8913 58.852C32.1553 59.324 32.2873 59.86 32.2873 60.46ZM31.1593 60.232C31.1593 59.816 31.0673 59.46 30.8833 59.164C30.6993 58.86 30.4473 58.632 30.1273 58.48C29.8153 58.32 29.4673 58.24 29.0833 58.24C28.5313 58.24 28.0593 58.416 27.6673 58.768C27.2833 59.12 27.0633 59.608 27.0073 60.232H31.1593ZM38.8767 55.636V56.524H36.5967V64H35.5047V56.524H33.2127V55.636H38.8767ZM39.8129 60.688C39.8129 60.016 39.9489 59.428 40.2209 58.924C40.4929 58.412 40.8649 58.016 41.3369 57.736C41.8169 57.456 42.3489 57.316 42.9329 57.316C43.5089 57.316 44.0089 57.44 44.4329 57.688C44.8569 57.936 45.1729 58.248 45.3809 58.624V57.424H46.4849V64H45.3809V62.776C45.1649 63.16 44.8409 63.48 44.4089 63.736C43.9849 63.984 43.4889 64.108 42.9209 64.108C42.3369 64.108 41.8089 63.964 41.3369 63.676C40.8649 63.388 40.4929 62.984 40.2209 62.464C39.9489 61.944 39.8129 61.352 39.8129 60.688ZM45.3809 60.7C45.3809 60.204 45.2809 59.772 45.0809 59.404C44.8809 59.036 44.6089 58.756 44.2649 58.564C43.9289 58.364 43.5569 58.264 43.1489 58.264C42.7409 58.264 42.3689 58.36 42.0329 58.552C41.6969 58.744 41.4289 59.024 41.2289 59.392C41.0289 59.76 40.9289 60.192 40.9289 60.688C40.9289 61.192 41.0289 61.632 41.2289 62.008C41.4289 62.376 41.6969 62.66 42.0329 62.86C42.3689 63.052 42.7409 63.148 43.1489 63.148C43.5569 63.148 43.9289 63.052 44.2649 62.86C44.6089 62.66 44.8809 62.376 45.0809 62.008C45.2809 61.632 45.3809 61.196 45.3809 60.7ZM50.6583 64.108C50.1543 64.108 49.7023 64.024 49.3023 63.856C48.9023 63.68 48.5863 63.44 48.3543 63.136C48.1223 62.824 47.9943 62.468 47.9703 62.068H49.0983C49.1303 62.396 49.2823 62.664 49.5543 62.872C49.8343 63.08 50.1983 63.184 50.6463 63.184C51.0623 63.184 51.3903 63.092 51.6303 62.908C51.8703 62.724 51.9903 62.492 51.9903 62.212C51.9903 61.924 51.8623 61.712 51.6063 61.576C51.3503 61.432 50.9543 61.292 50.4183 61.156C49.9303 61.028 49.5303 60.9 49.2183 60.772C48.9143 60.636 48.6503 60.44 48.4263 60.184C48.2103 59.92 48.1023 59.576 48.1023 59.152C48.1023 58.816 48.2023 58.508 48.4023 58.228C48.6023 57.948 48.8863 57.728 49.2543 57.568C49.6223 57.4 50.0423 57.316 50.5143 57.316C51.2423 57.316 51.8303 57.5 52.2783 57.868C52.7263 58.236 52.9663 58.74 52.9983 59.38H51.9063C51.8823 59.036 51.7423 58.76 51.4863 58.552C51.2383 58.344 50.9023 58.24 50.4783 58.24C50.0863 58.24 49.7743 58.324 49.5423 58.492C49.3103 58.66 49.1943 58.88 49.1943 59.152C49.1943 59.368 49.2623 59.548 49.3983 59.692C49.5423 59.828 49.7183 59.94 49.9263 60.028C50.1423 60.108 50.4383 60.2 50.8143 60.304C51.2863 60.432 51.6703 60.56 51.9663 60.688C52.2623 60.808 52.5143 60.992 52.7223 61.24C52.9383 61.488 53.0503 61.812 53.0583 62.212C53.0583 62.572 52.9583 62.896 52.7583 63.184C52.5583 63.472 52.2743 63.7 51.9063 63.868C51.5463 64.028 51.1303 64.108 50.6583 64.108ZM58.2718 64L55.6918 61.096V64H54.5998V55.12H55.6918V60.34L58.2238 57.424H59.7478L56.6518 60.7L59.7598 64H58.2718ZM69.9868 58.216C69.9868 58.664 69.8788 59.084 69.6628 59.476C69.4548 59.868 69.1228 60.184 68.6668 60.424C68.2188 60.664 67.6508 60.784 66.9628 60.784H65.5588V64H63.8788V55.624H66.9628C67.6108 55.624 68.1628 55.736 68.6188 55.96C69.0748 56.184 69.4148 56.492 69.6388 56.884C69.8708 57.276 69.9868 57.72 69.9868 58.216ZM66.8908 59.428C67.3548 59.428 67.6988 59.324 67.9228 59.116C68.1468 58.9 68.2588 58.6 68.2588 58.216C68.2588 57.4 67.8028 56.992 66.8908 56.992H65.5588V59.428H66.8908ZM72.8596 58.384C73.0756 58.032 73.3556 57.756 73.6996 57.556C74.0516 57.356 74.4516 57.256 74.8996 57.256V59.02H74.4556C73.9276 59.02 73.5276 59.144 73.2556 59.392C72.9916 59.64 72.8596 60.072 72.8596 60.688V64H71.1796V57.352H72.8596V58.384ZM78.9831 64.108C78.3431 64.108 77.7671 63.968 77.2551 63.688C76.7431 63.4 76.3391 62.996 76.0431 62.476C75.7551 61.956 75.6111 61.356 75.6111 60.676C75.6111 59.996 75.7591 59.396 76.0551 58.876C76.3591 58.356 76.7711 57.956 77.2911 57.676C77.8111 57.388 78.3911 57.244 79.0311 57.244C79.6711 57.244 80.2511 57.388 80.7711 57.676C81.2911 57.956 81.6991 58.356 81.9951 58.876C82.2991 59.396 82.4511 59.996 82.4511 60.676C82.4511 61.356 82.2951 61.956 81.9831 62.476C81.6791 62.996 81.2631 63.4 80.7351 63.688C80.2151 63.968 79.6311 64.108 78.9831 64.108ZM78.9831 62.644C79.2871 62.644 79.5711 62.572 79.8351 62.428C80.1071 62.276 80.3231 62.052 80.4831 61.756C80.6431 61.46 80.7231 61.1 80.7231 60.676C80.7231 60.044 80.5551 59.56 80.2191 59.224C79.8911 58.88 79.4871 58.708 79.0071 58.708C78.5271 58.708 78.1231 58.88 77.7951 59.224C77.4751 59.56 77.3151 60.044 77.3151 60.676C77.3151 61.308 77.4711 61.796 77.7831 62.14C78.1031 62.476 78.5031 62.644 78.9831 62.644Z" fill="white"/>
<defs>
<filter id="filter0_b_9_19" x="8" y="1" width="68" height="48" filterUnits="userSpaceOnUse" color-interpolation-filters="sRGB">
<feFlood flood-opacity="0" result="BackgroundImageFix"/>
<feGaussianBlur in="BackgroundImageFix" stdDeviation="2"/>
<feComposite in2="SourceAlpha" operator="in" result="effect1_backgroundBlur_9_19"/>
<feBlend mode="normal" in="SourceGraphic" in2="effect1_backgroundBlur_9_19" result="shape"/>
</filter>
</defs>
</svg>
