<svg width="35" height="35" viewBox="0 0 35 35" fill="none" xmlns="http://www.w3.org/2000/svg">
<path fill-rule="evenodd" clip-rule="evenodd" d="M10.2816 4.44829C12.1961 2.53385 14.7926 1.45834 17.5 1.45834C20.2074 1.45834 22.804 2.53385 24.7184 4.44829C26.6328 6.36272 27.7083 8.95925 27.7083 11.6667C27.7083 16.556 28.7541 19.5922 29.7178 21.359C30.2016 22.2461 30.6728 22.828 31.0001 23.1735C31.1641 23.3466 31.293 23.4614 31.3706 23.5261C31.4094 23.5584 31.4355 23.5783 31.4467 23.5866C31.4485 23.5879 31.4499 23.589 31.4509 23.5897C31.9737 23.9488 32.205 24.6057 32.0208 25.2143C31.8345 25.8293 31.2677 26.25 30.625 26.25H4.37501C3.73237 26.25 3.16548 25.8293 2.97925 25.2143C2.795 24.6057 3.02635 23.9488 3.54914 23.5897C3.55017 23.589 3.55156 23.5879 3.55331 23.5866C3.56454 23.5783 3.59057 23.5584 3.6294 23.5261C3.707 23.4614 3.8359 23.3466 3.99992 23.1735C4.32722 22.828 4.79838 22.2461 5.28225 21.359C6.24595 19.5922 7.29168 16.556 7.29168 11.6667C7.29168 8.95925 8.3672 6.36272 10.2816 4.44829ZM3.56388 23.5797C3.564 23.5796 3.56411 23.5796 3.56423 23.5795C3.56422 23.5795 3.56422 23.5795 3.56421 23.5795L3.56388 23.5797ZM7.50944 23.3333H27.4906C27.3796 23.1515 27.2682 22.9591 27.1572 22.7556C25.9335 20.512 24.7917 16.9857 24.7917 11.6667C24.7917 9.7328 24.0235 7.87813 22.656 6.51068C21.2885 5.14323 19.4339 4.375 17.5 4.375C15.5661 4.375 13.7115 5.14323 12.344 6.51068C10.9766 7.87813 10.2083 9.7328 10.2083 11.6667C10.2083 16.9857 9.06657 20.512 7.84278 22.7556C7.7318 22.9591 7.6204 23.1515 7.50944 23.3333Z" fill="white"/>
<path fill-rule="evenodd" clip-rule="evenodd" d="M14.2453 29.3635C14.942 28.9594 15.8344 29.1966 16.2386 29.8932C16.3668 30.1142 16.5508 30.2977 16.7721 30.4252C16.9935 30.5527 17.2445 30.6198 17.5 30.6198C17.7555 30.6198 18.0065 30.5527 18.2279 30.4252C18.4493 30.2977 18.6333 30.1142 18.7615 29.8932C19.1656 29.1966 20.058 28.9594 20.7547 29.3635C21.4514 29.7677 21.6885 30.6601 21.2844 31.3567C20.8998 32.0197 20.3478 32.57 19.6836 32.9526C19.0195 33.3351 18.2665 33.5365 17.5 33.5365C16.7336 33.5365 15.9806 33.3351 15.3164 32.9526C14.6522 32.57 14.1002 32.0197 13.7156 31.3567C13.3115 30.6601 13.5487 29.7677 14.2453 29.3635Z" fill="white"/>
</svg>
