<svg width="50" height="50" viewBox="0 0 50 50" fill="none" xmlns="http://www.w3.org/2000/svg">
<g clip-path="url(#clip0_18_351)">
<rect width="50" height="50" rx="25" fill="#818CF8"/>
<path d="M30.1667 29V31C30.1667 33.6667 34 34.8333 34 34.8333C34 34.8333 29.5833 38.1667 25 38.1667C20.4167 38.1667 16 34.8333 16 34.8333C16 34.8333 19.8635 33.6667 19.8333 31C19.8032 28.3333 19.8233 26.7667 19.8032 22.198C17.4145 19.1018 17.5678 17.0238 18.874 15.5625C23.25 10.6667 35.1667 12.3333 35.1667 12.3333C35.1667 12.3333 36.2787 24.3322 33.75 27.8333C32.6667 29.3333 30.1667 29 30.1667 29Z" fill="url(#paint0_linear_18_351)"/>
<path style="mix-blend-mode:multiply" opacity="0.6" d="M30.1666 29C26.4999 28.5833 24.3333 27 24.3333 27C25.7012 29.0237 27.7859 30.4532 30.1666 31V29Z" fill="url(#paint1_linear_18_351)"/>
<path d="M42.5 39.8847C44.0867 43.1109 45 50.5513 45 50.5513H5C5 50.5513 5.91367 43.11 7.5 39.8847C9.08633 36.6594 18.35 33.6679 18.35 33.6679C20.1355 37.3334 29.9347 37.3334 31.6452 33.6667C31.6452 33.6667 40.9133 36.6585 42.5 39.8847Z" fill="url(#paint2_linear_18_351)"/>
<path d="M24.3333 46.3333C24.3333 46.2015 24.3724 46.0726 24.4456 45.963C24.5189 45.8533 24.623 45.7679 24.7448 45.7174C24.8666 45.667 25.0007 45.6538 25.13 45.6795C25.2593 45.7052 25.3781 45.7687 25.4713 45.8619C25.5646 45.9552 25.6281 46.074 25.6538 46.2033C25.6795 46.3326 25.6663 46.4666 25.6158 46.5885C25.5654 46.7103 25.4799 46.8144 25.3703 46.8876C25.2607 46.9609 25.1318 47 24.9999 47C24.8231 47 24.6535 46.9298 24.5285 46.8047C24.4035 46.6797 24.3333 46.5101 24.3333 46.3333ZM24.3333 43C24.3333 42.8681 24.3724 42.7393 24.4456 42.6296C24.5189 42.52 24.623 42.4345 24.7448 42.3841C24.8666 42.3336 25.0007 42.3204 25.13 42.3461C25.2593 42.3719 25.3781 42.4354 25.4713 42.5286C25.5646 42.6218 25.6281 42.7406 25.6538 42.8699C25.6795 42.9993 25.6663 43.1333 25.6158 43.2551C25.5654 43.3769 25.4799 43.4811 25.3703 43.5543C25.2607 43.6276 25.1318 43.6667 24.9999 43.6667C24.8231 43.6667 24.6535 43.5964 24.5285 43.4714C24.4035 43.3464 24.3333 43.1768 24.3333 43ZM24.3333 39.6667C24.3333 39.5348 24.3724 39.4059 24.4456 39.2963C24.5189 39.1867 24.623 39.1012 24.7448 39.0507C24.8666 39.0003 25.0007 38.9871 25.13 39.0128C25.2593 39.0385 25.3781 39.102 25.4713 39.1953C25.5646 39.2885 25.6281 39.4073 25.6538 39.5366C25.6795 39.6659 25.6663 39.8 25.6158 39.9218C25.5654 40.0436 25.4799 40.1477 25.3703 40.221C25.2607 40.2942 25.1318 40.3333 24.9999 40.3333C24.8231 40.3333 24.6535 40.2631 24.5285 40.1381C24.4035 40.013 24.3333 39.8435 24.3333 39.6667Z" fill="white"/>
<path d="M21.8593 17.2015C21.3293 16.7463 20.6853 16.4398 19.775 16.9128C17.6168 18.0333 19.2501 22.3333 21.1668 22.3333C21.6668 22.3333 21.9155 23.9037 19.6893 25C19.6893 23.25 17.0226 18.9167 16.7893 14.9713C14.106 13.9722 14.7726 9.97433 16.6148 9.97433C16.3208 6.30966 22.1893 4.41666 24.4616 6.51983C26.7726 3.75 32.606 5.16666 32.9581 7.56966C36.9693 5.4285 39.606 11.5833 35.8501 13.9727C34.3046 14.956 30.6893 15.3302 25.4705 15.3302C24.6826 15.3302 24.2413 15.5258 24.4616 16.5C24.8881 18.3877 23.898 19.5767 21.8593 17.2015Z" fill="url(#paint3_linear_18_351)"/>
</g>
<defs>
<linearGradient id="paint0_linear_18_351" x1="25.7051" y1="12.0599" x2="25.7051" y2="38.1667" gradientUnits="userSpaceOnUse">
<stop stop-color="#E6864E"/>
<stop offset="1" stop-color="#EB965E"/>
</linearGradient>
<linearGradient id="paint1_linear_18_351" x1="29.0641" y1="27.752" x2="28.0424" y2="31.6207" gradientUnits="userSpaceOnUse">
<stop stop-color="#E07A3F"/>
<stop offset="1" stop-color="#EB9154"/>
</linearGradient>
<linearGradient id="paint2_linear_18_351" x1="25" y1="33.6667" x2="25" y2="50.5513" gradientUnits="userSpaceOnUse">
<stop stop-color="#1D0024"/>
<stop offset="1" stop-color="#100014"/>
</linearGradient>
<linearGradient id="paint3_linear_18_351" x1="26.3307" y1="4.99957" x2="26.3307" y2="25" gradientUnits="userSpaceOnUse">
<stop stop-color="#1D0024"/>
<stop offset="1" stop-color="#100014"/>
</linearGradient>
<clipPath id="clip0_18_351">
<rect width="50" height="50" rx="25" fill="white"/>
</clipPath>
</defs>
</svg>
