<svg width="35" height="35" viewBox="0 0 35 35" fill="none" xmlns="http://www.w3.org/2000/svg">
<path fill-rule="evenodd" clip-rule="evenodd" d="M5.83334 5.83332C5.44657 5.83332 5.07564 5.98697 4.80215 6.26046C4.52866 6.53395 4.37501 6.90488 4.37501 7.29166V27.7083C4.37501 28.0951 4.52866 28.466 4.80215 28.7395C5.07564 29.013 5.44657 29.1667 5.83334 29.1667H24.7917C24.8547 29.1667 24.9176 29.1707 24.9801 29.1789C25.2681 29.2164 25.5608 29.1671 25.8207 29.0371C26.0524 28.9213 26.2485 28.7461 26.3896 28.5301L29.979 18.9583H12.654L10.104 25.3333C9.80492 26.0811 8.95621 26.4448 8.2084 26.1457C7.46059 25.8466 7.09686 24.9979 7.39598 24.25L10.3126 16.9584C10.5341 16.4047 11.0704 16.0417 11.6667 16.0417H27.7083V11.6667C27.7083 11.2799 27.5547 10.9089 27.2812 10.6355C27.0077 10.362 26.6368 10.2083 26.25 10.2083H16.0417C15.5541 10.2083 15.0987 9.96463 14.8283 9.55893L12.3445 5.83332H5.83334ZM30.625 16.0417V11.6667C30.625 10.5063 30.1641 9.39354 29.3436 8.57306C28.5231 7.75259 27.4103 7.29166 26.25 7.29166H16.8222L14.3384 3.56605C14.0679 3.16035 13.6126 2.91666 13.125 2.91666H5.83334C4.67302 2.91666 3.56022 3.37759 2.73975 4.19806C1.91928 5.01854 1.45834 6.13133 1.45834 7.29166V27.7083C1.45834 28.8686 1.91928 29.9814 2.73975 30.8019C3.56022 31.6224 4.67302 32.0833 5.83334 32.0833H24.7067C25.5373 32.1715 26.3766 32.0201 27.125 31.6459C27.9045 31.2561 28.5498 30.6425 28.9783 29.8836C29.0154 29.8179 29.0473 29.7494 29.0738 29.6787L33.4488 18.012C33.6168 17.5642 33.5544 17.0625 33.282 16.6693C33.0095 16.2762 32.5616 16.0417 32.0833 16.0417H30.625Z" fill="white"/>
</svg>
