<svg width="220" height="220" viewBox="0 0 220 220" fill="none" xmlns="http://www.w3.org/2000/svg">
<path d="M109.87 210.467C170.549 210.467 219.739 182.067 219.739 147.033C219.739 112 170.549 83.6 109.87 83.6C49.1903 83.6 0 112 0 147.033C0 182.067 49.1903 210.467 109.87 210.467Z" fill="#E2E8F0"/>
<path d="M68.7474 39.0517C67.3345 38.8405 66.3907 38.3838 66.2024 37.6363C66.0128 36.8839 66.6261 35.9238 67.3746 35.6312C68.123 35.3386 69.1504 35.1107 70.4207 35.2594C70.2904 33.9623 71.4855 32.4267 72.6638 31.775C73.8421 31.1234 75.9836 30.9711 77.1879 31.9651C77.5373 29.6388 79.0328 28.5001 81.3754 27.6848C82.6619 27.2369 85.3305 26.9676 87.3787 28.8389C88.7361 26.3001 92.7811 24.7795 96.936 26.4409C98.6353 27.1207 99.9962 28.4926 100.683 29.9459C101.134 30.9012 101.218 31.7834 101.317 32.809C102.373 32.0355 104.044 31.9224 105.168 32.622C106.088 33.194 106.644 34.2619 106.569 35.3095C107.427 35.3615 108.275 35.5581 109.063 35.8881C109.963 36.2652 110.899 37.1127 110.572 38.0006C110.325 38.6738 109.488 38.9409 108.751 39.0429C107.291 39.2449 105.787 39.1512 104.367 38.7697C101.77 40.5724 97.9145 40.4795 95.4158 38.5532C95.4844 38.606 93.735 39.6735 93.5647 39.7483C92.8858 40.0475 92.1563 40.2437 91.4135 40.3238C90.1582 40.4589 88.3925 40.2221 87.4131 39.398C87.2753 39.2819 87.1301 39.1463 86.9471 39.1389C86.8036 39.1331 86.673 39.2088 86.5485 39.277C84.6639 40.3141 82.1282 40.1341 80.4237 38.8427C79.3285 39.8358 77.8048 40.3819 76.2978 40.3207C74.7908 40.26 73.3207 39.5929 72.3167 38.5149C71.2607 38.9448 70.1607 39.2629 68.7474 39.0517Z" fill="#F5F5F5"/>
<path d="M55.6222 28.2511C56.6773 28.0931 57.3822 27.7521 57.5225 27.1937C57.6642 26.6319 57.2062 25.9151 56.6474 25.6964C56.0886 25.4777 55.3212 25.3079 54.3726 25.4188C54.4698 24.4503 53.5775 23.3033 52.6975 22.8166C51.8175 22.33 50.2185 22.2165 49.3192 22.9583C49.0582 21.2212 47.9415 20.3707 46.1925 19.7621C45.232 19.4277 43.2392 19.2267 41.7098 20.6241C40.696 18.7286 37.6754 17.5925 34.573 18.8337C33.304 19.3411 32.2876 20.3658 31.775 21.4513C31.438 22.1645 31.3755 22.8232 31.3012 23.5893C30.5127 23.0115 29.2653 22.9271 28.4258 23.4498C27.7394 23.877 27.3236 24.6743 27.379 25.4566C26.7384 25.4953 26.1052 25.6423 25.5169 25.8887C24.8446 26.1703 24.1459 26.803 24.3896 27.4661C24.5744 27.9686 25.1992 28.1683 25.7497 28.2445C26.84 28.3954 27.9629 28.3254 29.0233 28.0403C30.9624 29.3867 33.8417 29.3167 35.7073 27.8788C35.6563 27.9184 36.9626 28.7153 37.0894 28.7711C37.5962 28.9947 38.141 29.1412 38.6958 29.201C39.6334 29.3018 40.9517 29.1253 41.683 28.5098C41.7859 28.4231 41.8942 28.3219 42.031 28.3166C42.1379 28.3122 42.2356 28.369 42.3284 28.42C43.7356 29.1944 45.6293 29.0602 46.9022 28.0957C47.7202 28.8376 48.858 29.245 49.9831 29.1997C51.1082 29.1539 52.2064 28.6563 52.9558 27.8511C53.7456 28.171 54.567 28.4086 55.6222 28.2511Z" fill="#F5F5F5"/>
<path d="M88.6772 114.657L129.58 139.491L148.994 144.711L174.855 135.124L197.956 135.184L209.498 120.679L197.956 81.6117L189.637 77.6693L181.624 39.963L150.389 41.056L144.591 61.4944L135.286 64.2884L126.316 82.0332L105.384 87.1675L88.6772 114.657Z" fill="#37474F"/>
<path d="M173.849 114.423L146.695 124.026L114.583 108.706L147.404 117.493L173.849 114.423Z" fill="#455A64"/>
<path d="M148.994 144.711L146.695 124.026L173.849 114.423L174.855 135.124L148.994 144.711Z" fill="#263238"/>
<path d="M191.414 95.9469L197.956 135.184L209.498 120.679L197.956 81.6117L191.414 95.9469Z" fill="#263238"/>
<path d="M150.389 41.056L177.425 48.8453L181.624 39.963L150.389 41.056Z" fill="#4F46E5"/>
<path opacity="0.35" d="M150.389 41.056L177.425 48.8453L181.624 39.963L150.389 41.056Z" fill="#E2E8F0"/>
<path d="M189.637 77.6693L182.748 92.3565L143.927 99.4787L191.414 95.9469L197.956 81.6117L189.637 77.6693Z" fill="#455A64"/>
<path d="M189.637 77.6693L182.748 92.3565L177.425 48.8453L181.624 39.963L189.637 77.6693Z" fill="#263238"/>
<path d="M105.384 87.1675L126.316 82.0332L135.07 94.7562L105.384 87.1675Z" fill="#455A64"/>
<path d="M144.591 61.4944L151.415 71.8573L176.608 74.3816L145.907 77.3212L135.286 64.2884L144.591 61.4944Z" fill="#455A64"/>
<path d="M73.9671 136.952L103.525 149.194L129.58 139.491L129.091 125.224L115.872 115.888L104.302 111.812L92.6706 108.072L82.1762 110.681L73.9671 136.952Z" fill="#37474F"/>
<path d="M115.872 115.888L111.115 127.329L95.7528 129.615L78.6289 125.137L104.714 136.572L123.841 131.836L129.091 125.224L115.872 115.888Z" fill="#455A64"/>
<path d="M103.525 149.194L104.714 136.572L123.841 131.836L129.091 125.224L129.58 139.491L103.525 149.194Z" fill="#263238"/>
<path d="M92.6706 108.072L82.1762 110.681L93.8661 114.988L104.302 111.812L92.6706 108.072Z" fill="#455A64"/>
<path d="M173.806 152.148L184.036 157.013V148.779L177.299 144.787L173.806 152.148Z" fill="#263238"/>
<path d="M188.527 146.16L184.036 148.779V157.013L190.773 153.769L188.527 146.16Z" fill="#37474F"/>
<path d="M177.299 144.787L183.412 144.163L188.527 146.16L184.036 148.779L177.299 144.787Z" fill="#455A64"/>
<path d="M188.151 151.136L190.075 152.384L193.248 151.76L191.115 150.772H189.659L188.151 151.136Z" fill="#455A64"/>
<path d="M189.555 156.545L190.075 152.384L193.248 151.76L194.08 153.84L189.555 156.545Z" fill="#37474F"/>
<path d="M188.151 151.136L186.539 155.817L189.555 156.545L190.075 152.384L188.151 151.136Z" fill="#263238"/>
<path d="M173.806 152.148L184.036 157.013V148.779L177.299 144.787L173.806 152.148Z" fill="#263238"/>
<path d="M188.527 146.16L184.036 148.779V157.013L190.773 153.769L188.527 146.16Z" fill="#37474F"/>
<path d="M177.299 144.787L183.412 144.163L188.527 146.16L184.036 148.779L177.299 144.787Z" fill="#455A64"/>
<path d="M188.151 151.136L190.075 152.384L193.248 151.76L191.115 150.772H189.659L188.151 151.136Z" fill="#455A64"/>
<path d="M189.555 156.545L190.075 152.384L193.248 151.76L194.08 153.84L189.555 156.545Z" fill="#37474F"/>
<path d="M188.151 151.136L186.539 155.817L189.555 156.545L190.075 152.384L188.151 151.136Z" fill="#263238"/>
<path d="M177.326 43.8997C166.005 48.0445 163.994 51.3841 163.013 71.7033C162.863 74.7657 162.458 77.4189 161.781 79.7553C159.761 86.7601 155.339 90.9049 148.308 94.7549C133.216 103.031 132.719 113.028 132.604 119.914C132.349 135.186 132.428 147.542 111.088 163.76C93.0569 177.466 72.7069 187.802 64.5229 210.255C49.3957 206.792 35.2233 201.525 22.9869 194.459C18.7013 191.986 14.7985 189.372 11.2785 186.644C20.9541 167.768 53.0389 156.306 68.3509 151.695C84.2921 146.89 107.295 140.15 111.44 120.108C114.485 105.376 114.146 97.8833 138.65 85.6117C144.141 82.8617 147.749 79.9973 150.209 77.0669C156.791 69.2261 155.115 60.9101 159.255 52.9725C163.281 45.2549 170.374 43.8997 170.374 43.8997H177.326Z" fill="#4F46E5"/>
<path opacity="0.35" d="M177.326 43.8997C166.005 48.0445 163.994 51.3841 163.013 71.7033C162.863 74.7657 162.458 77.4189 161.781 79.7553C159.761 86.7601 155.339 90.9049 148.308 94.7549C133.216 103.031 132.719 113.028 132.604 119.914C132.349 135.186 132.428 147.542 111.088 163.76C93.0569 177.466 72.7069 187.802 64.5229 210.255C49.3957 206.792 35.2233 201.525 22.9869 194.459C18.7013 191.986 14.7985 189.372 11.2785 186.644C20.9541 167.768 53.0389 156.306 68.3509 151.695C84.2921 146.89 107.295 140.15 111.44 120.108C114.485 105.376 114.146 97.8833 138.65 85.6117C144.141 82.8617 147.749 79.9973 150.209 77.0669C156.791 69.2261 155.115 60.9101 159.255 52.9725C163.281 45.2549 170.374 43.8997 170.374 43.8997H177.326Z" fill="#E2E8F0"/>
<path d="M148.606 185.992C147.785 185.992 147.051 185.383 146.901 184.58L146.493 182.433C145.541 182.258 144.617 182.032 143.726 181.756L139.946 183.506C139.691 183.625 139.393 183.688 139.084 183.688C138.706 183.688 138.335 183.593 138.039 183.422L134.307 181.267C133.855 181.007 133.572 180.557 133.547 180.065C133.523 179.573 133.761 179.098 134.184 178.794L136.47 177.15C136.25 176.861 136.052 176.563 135.879 176.26L131.108 175.958C130.231 175.903 129.543 175.171 129.543 174.292V171.519C129.543 170.642 130.229 169.91 131.108 169.852L135.879 169.55C136.052 169.247 136.25 168.95 136.47 168.66L134.184 167.017C133.762 166.713 133.523 166.238 133.547 165.746C133.572 165.254 133.855 164.804 134.308 164.543L138.039 162.389C138.335 162.218 138.706 162.124 139.084 162.124C139.393 162.124 139.691 162.186 139.944 162.304L143.748 164.052C144.622 163.779 145.544 163.553 146.493 163.379L146.901 161.231C147.054 160.427 147.788 159.82 148.606 159.82H154.092C154.911 159.82 155.644 160.427 155.797 161.233L156.205 163.379C157.154 163.554 158.079 163.78 158.972 164.056L162.754 162.303C163.009 162.186 163.305 162.124 163.612 162.124C163.99 162.124 164.362 162.218 164.66 162.389L168.393 164.545C168.843 164.806 169.125 165.255 169.15 165.746C169.175 166.237 168.938 166.712 168.514 167.017L166.229 168.661C166.449 168.951 166.646 169.248 166.819 169.551L171.59 169.853C172.468 169.908 173.155 170.64 173.155 171.519V174.292C173.155 175.172 172.468 175.904 171.591 175.959L166.82 176.26C166.646 176.564 166.448 176.861 166.229 177.151L168.516 178.795C168.938 179.1 169.176 179.575 169.15 180.067C169.125 180.558 168.841 181.008 168.391 181.267L164.658 183.423C164.362 183.594 163.99 183.688 163.614 183.688C163.305 183.688 163.008 183.626 162.753 183.508L158.95 181.76C158.076 182.032 157.154 182.259 156.205 182.434L155.797 184.58C155.644 185.385 154.911 185.992 154.092 185.992H148.606V185.992ZM145.632 170.282C144.346 171.025 143.608 171.981 143.608 172.906C143.608 173.829 144.346 174.786 145.632 175.528C147.14 176.399 149.171 176.878 151.348 176.878C153.527 176.878 155.557 176.399 157.065 175.528C158.351 174.786 159.089 173.829 159.089 172.905C159.089 171.982 158.351 171.025 157.065 170.282C155.557 169.412 153.527 168.933 151.349 168.933C149.171 168.933 147.14 169.412 145.632 170.282Z" fill="#E0E0E0"/>
<path d="M167.804 162.389L164.072 160.235C163.85 160.106 163.48 160.09 163.247 160.198L159.465 161.95C159.232 162.058 158.846 162.078 158.6 162.002C157.658 161.707 156.673 161.475 155.664 161.304C155.411 161.261 155.166 161.025 155.117 160.773L154.644 158.281C154.596 158.028 154.349 157.824 154.092 157.824H148.606C148.349 157.824 148.101 158.029 148.053 158.281L147.58 160.773C147.532 161.026 147.287 161.261 147.033 161.304C146.025 161.476 145.04 161.708 144.098 162.002C143.852 162.079 143.466 162.059 143.232 161.951L139.45 160.199C139.217 160.091 138.847 160.107 138.624 160.236L134.893 162.39C134.778 162.456 134.721 162.549 134.72 162.644H134.719L134.71 165.878L134.711 165.877C134.71 165.966 134.758 166.056 134.86 166.129L136.576 167.364C136.446 167.46 136.295 167.53 136.153 167.54L131.181 167.854C130.925 167.871 130.717 168.092 130.717 168.349V170.462C130.717 170.464 130.716 170.465 130.716 170.467L130.708 174.357C130.708 174.614 130.916 174.836 131.172 174.852L136.144 175.167C136.29 175.176 136.444 175.249 136.576 175.349L134.869 176.577C134.769 176.649 134.721 176.738 134.721 176.825L134.72 176.826L134.711 180.063L134.712 180.063C134.713 180.158 134.771 180.25 134.886 180.316L138.617 182.47C138.839 182.599 139.209 182.615 139.442 182.507L143.224 180.755C143.457 180.647 143.843 180.627 144.089 180.703C145.031 180.998 146.016 181.23 147.026 181.401C147.279 181.445 147.525 181.68 147.572 181.933L148.045 184.425C148.093 184.677 148.341 184.882 148.598 184.882H154.084C154.341 184.882 154.588 184.678 154.636 184.425L155.109 181.933C155.157 181.68 155.402 181.445 155.656 181.401C156.665 181.23 157.65 180.998 158.592 180.704C158.837 180.627 159.224 180.647 159.457 180.755L163.24 182.507C163.473 182.615 163.842 182.599 164.065 182.47L167.796 180.316C167.909 180.251 167.967 180.161 167.97 180.069H167.971L167.98 176.825H167.979C167.978 176.738 167.93 176.649 167.831 176.577L166.115 175.342C166.244 175.245 166.395 175.175 166.538 175.166L171.51 174.852C171.766 174.835 171.974 174.614 171.974 174.357L171.981 171.135C171.981 171.131 171.983 171.127 171.983 171.122V168.348C171.983 168.091 171.775 167.87 171.519 167.853L166.547 167.539C166.401 167.53 166.247 167.456 166.115 167.356L167.822 166.128C167.921 166.056 167.969 165.968 167.97 165.88L167.971 165.881L167.98 162.642L167.978 162.642C167.976 162.547 167.919 162.455 167.804 162.389ZM142.617 170.768C142.885 169.875 143.683 169 145.045 168.214C148.526 166.204 154.169 166.204 157.651 168.214C158.928 168.951 159.76 169.762 160.136 170.592C159.839 171.611 159.013 172.588 157.652 173.374C154.171 175.384 148.526 175.384 145.046 173.374C143.763 172.634 142.955 171.723 142.617 170.768Z" fill="#4F46E5"/>
<path opacity="0.2" d="M167.804 162.389L164.072 160.235C163.85 160.106 163.48 160.09 163.247 160.198L159.465 161.95C159.232 162.058 158.846 162.078 158.6 162.002C157.658 161.707 156.673 161.475 155.664 161.304C155.411 161.261 155.166 161.025 155.117 160.773L154.644 158.281C154.596 158.028 154.349 157.824 154.092 157.824H148.606C148.349 157.824 148.101 158.029 148.053 158.281L147.58 160.773C147.532 161.026 147.287 161.261 147.033 161.304C146.025 161.476 145.04 161.708 144.098 162.002C143.852 162.079 143.466 162.059 143.232 161.951L139.45 160.199C139.217 160.091 138.847 160.107 138.624 160.236L134.893 162.39C134.778 162.456 134.721 162.549 134.72 162.644H134.719L134.71 165.878L134.711 165.877C134.71 165.966 134.758 166.056 134.86 166.129L136.576 167.364C136.446 167.46 136.295 167.53 136.153 167.54L131.181 167.854C130.925 167.871 130.717 168.092 130.717 168.349V170.462C130.717 170.464 130.716 170.465 130.716 170.467L130.708 174.357C130.708 174.614 130.916 174.836 131.172 174.852L136.144 175.167C136.29 175.176 136.444 175.249 136.576 175.349L134.869 176.577C134.769 176.649 134.721 176.738 134.721 176.825L134.72 176.826L134.711 180.063L134.712 180.063C134.713 180.158 134.771 180.25 134.886 180.316L138.617 182.47C138.839 182.599 139.209 182.615 139.442 182.507L143.224 180.755C143.457 180.647 143.843 180.627 144.089 180.703C145.031 180.998 146.016 181.23 147.026 181.401C147.279 181.445 147.525 181.68 147.572 181.933L148.045 184.425C148.093 184.677 148.341 184.882 148.598 184.882H154.084C154.341 184.882 154.588 184.678 154.636 184.425L155.109 181.933C155.157 181.68 155.402 181.445 155.656 181.401C156.665 181.23 157.65 180.998 158.592 180.704C158.837 180.627 159.224 180.647 159.457 180.755L163.24 182.507C163.473 182.615 163.842 182.599 164.065 182.47L167.796 180.316C167.909 180.251 167.967 180.161 167.97 180.069H167.971L167.98 176.825H167.979C167.978 176.738 167.93 176.649 167.831 176.577L166.115 175.342C166.244 175.245 166.395 175.175 166.538 175.166L171.51 174.852C171.766 174.835 171.974 174.614 171.974 174.357L171.981 171.135C171.981 171.131 171.983 171.127 171.983 171.122V168.348C171.983 168.091 171.775 167.87 171.519 167.853L166.547 167.539C166.401 167.53 166.247 167.456 166.115 167.356L167.822 166.128C167.921 166.056 167.969 165.968 167.97 165.88L167.971 165.881L167.98 162.642L167.978 162.642C167.976 162.547 167.919 162.455 167.804 162.389ZM142.617 170.768C142.885 169.875 143.683 169 145.045 168.214C148.526 166.204 154.169 166.204 157.651 168.214C158.928 168.951 159.76 169.762 160.136 170.592C159.839 171.611 159.013 172.588 157.652 173.374C154.171 175.384 148.526 175.384 145.046 173.374C143.763 172.634 142.955 171.723 142.617 170.768Z" fill="#E2E8F0"/>
<path opacity="0.1" d="M136.823 172.377C136.701 172.15 136.408 171.947 136.151 171.93L131.179 171.617C130.922 171.6 130.716 171.38 130.717 171.122L130.715 170.466L130.706 174.354C130.709 174.614 130.915 174.834 131.172 174.851L136.144 175.164C136.291 175.173 136.449 175.243 136.581 175.345L137.826 174.449C138.035 174.299 138.054 174.031 137.88 173.842C137.448 173.368 137.097 172.878 136.823 172.377ZM134.709 165.876L134.712 165.878C134.709 165.965 134.759 166.053 134.86 166.128L136.576 167.365C136.679 167.289 136.769 167.193 136.822 167.092C137.095 166.59 137.449 166.101 137.88 165.627C138.054 165.436 138.033 165.17 137.824 165.02L134.867 162.894C134.782 162.829 134.732 162.753 134.717 162.677L134.709 165.876Z" fill="black"/>
<path opacity="0.1" d="M157.651 166.097C154.169 164.087 148.527 164.085 145.046 166.095C142.845 167.365 142.036 169.134 142.616 170.771C142.878 169.878 143.68 169.001 145.045 168.212C148.527 166.202 154.169 166.205 157.65 168.215C158.925 168.95 159.76 169.759 160.138 170.59C160.601 169.005 159.769 167.32 157.651 166.097Z" fill="black"/>
<path d="M171.978 171.186C171.945 171.412 171.751 171.6 171.517 171.618L166.547 171.931C166.464 171.934 166.378 171.96 166.296 171.998L166.291 175.237C166.372 175.199 166.455 175.171 166.534 175.166L171.507 174.849C171.765 174.834 171.974 174.612 171.973 174.357L171.978 171.186ZM167.979 162.641L167.976 162.639C167.979 162.671 167.972 162.705 167.957 162.738C167.95 162.772 167.926 162.805 167.897 162.835C167.876 162.856 167.857 162.875 167.83 162.893L164.872 165.02C164.845 165.038 164.819 165.061 164.801 165.085C164.752 165.141 164.72 165.203 164.708 165.268C164.701 165.31 164.699 165.351 164.704 165.392C164.708 165.416 164.713 165.436 164.718 165.456C164.738 165.518 164.772 165.576 164.818 165.627C164.839 165.649 164.856 165.671 164.873 165.693C165.28 166.144 165.613 166.615 165.875 167.092C165.93 167.187 166.011 167.281 166.11 167.358L167.82 166.131C167.919 166.056 167.97 165.968 167.968 165.882L167.971 165.884L167.979 162.641ZM167.978 176.854C167.967 176.94 167.908 177.02 167.804 177.083L164.071 179.235C163.918 179.325 163.695 179.36 163.493 179.337L163.487 182.567C163.689 182.591 163.911 182.559 164.064 182.469L167.794 180.315C167.908 180.249 167.967 180.161 167.97 180.069L167.978 176.854ZM143.605 177.43C143.466 177.443 143.334 177.473 143.232 177.519L139.451 179.272C139.356 179.318 139.237 179.343 139.114 179.344L139.106 182.573C139.227 182.567 139.346 182.551 139.444 182.506L143.225 180.753C143.328 180.707 143.463 180.679 143.596 180.668L143.605 177.43ZM154.553 181.4C154.447 181.546 154.274 181.649 154.093 181.647L148.605 181.648C148.484 181.646 148.365 181.603 148.269 181.526L148.266 184.762C148.363 184.835 148.477 184.88 148.598 184.882L154.081 184.882C154.276 184.881 154.46 184.767 154.562 184.606L154.553 181.4Z" fill="#4F46E5"/>
<path opacity="0.7" d="M171.978 171.186C171.945 171.412 171.751 171.6 171.517 171.618L166.547 171.931C166.464 171.934 166.378 171.96 166.296 171.998L166.291 175.237C166.372 175.199 166.455 175.171 166.534 175.166L171.507 174.849C171.765 174.834 171.974 174.612 171.973 174.357L171.978 171.186ZM167.979 162.641L167.976 162.639C167.979 162.671 167.972 162.705 167.957 162.738C167.95 162.772 167.926 162.805 167.897 162.835C167.876 162.856 167.857 162.875 167.83 162.893L164.872 165.02C164.845 165.038 164.819 165.061 164.801 165.085C164.752 165.141 164.72 165.203 164.708 165.268C164.701 165.31 164.699 165.351 164.704 165.392C164.708 165.416 164.713 165.436 164.718 165.456C164.738 165.518 164.772 165.576 164.818 165.627C164.839 165.649 164.856 165.671 164.873 165.693C165.28 166.144 165.613 166.615 165.875 167.092C165.93 167.187 166.011 167.281 166.11 167.358L167.82 166.131C167.919 166.056 167.97 165.968 167.968 165.882L167.971 165.884L167.979 162.641ZM167.978 176.854C167.967 176.94 167.908 177.02 167.804 177.083L164.071 179.235C163.918 179.325 163.695 179.36 163.493 179.337L163.487 182.567C163.689 182.591 163.911 182.559 164.064 182.469L167.794 180.315C167.908 180.249 167.967 180.161 167.97 180.069L167.978 176.854ZM143.605 177.43C143.466 177.443 143.334 177.473 143.232 177.519L139.451 179.272C139.356 179.318 139.237 179.343 139.114 179.344L139.106 182.573C139.227 182.567 139.346 182.551 139.444 182.506L143.225 180.753C143.328 180.707 143.463 180.679 143.596 180.668L143.605 177.43ZM154.553 181.4C154.447 181.546 154.274 181.649 154.093 181.647L148.605 181.648C148.484 181.646 148.365 181.603 148.269 181.526L148.266 184.762C148.363 184.835 148.477 184.88 148.598 184.882L154.081 184.882C154.276 184.881 154.46 184.767 154.562 184.606L154.553 181.4Z" fill="#E2E8F0"/>
<path d="M163.247 160.197L159.465 161.949C159.232 162.058 158.846 162.078 158.6 162.001C157.658 161.707 156.673 161.475 155.664 161.304C155.411 161.26 155.165 161.025 155.117 160.772L154.644 158.28C154.596 158.028 154.349 157.823 154.092 157.823H148.606C148.349 157.823 148.101 158.028 148.053 158.281L147.58 160.773C147.532 161.025 147.287 161.261 147.033 161.304C146.024 161.475 145.04 161.707 144.098 162.002C143.852 162.079 143.466 162.059 143.232 161.95L139.45 160.198C139.217 160.09 138.847 160.107 138.624 160.235L134.893 162.389C134.671 162.518 134.659 162.744 134.868 162.894L137.825 165.022C138.034 165.172 138.053 165.439 137.88 165.629C137.448 166.101 137.097 166.591 136.824 167.093C136.701 167.319 136.409 167.523 136.152 167.539L131.181 167.854C130.924 167.871 130.716 168.092 130.716 168.349V171.123C130.716 171.38 130.924 171.602 131.181 171.618L136.152 171.933C136.409 171.949 136.701 172.153 136.824 172.379C137.096 172.88 137.448 173.371 137.88 173.843C138.053 174.033 138.034 174.3 137.825 174.45L134.868 176.578C134.66 176.728 134.671 176.954 134.893 177.082L138.624 179.237C138.847 179.365 139.216 179.382 139.45 179.274L143.231 177.522C143.465 177.413 143.851 177.393 144.096 177.47C145.038 177.764 146.023 177.997 147.033 178.168C147.286 178.211 147.531 178.447 147.579 178.699L148.052 181.192C148.1 181.444 148.347 181.649 148.604 181.649H154.09C154.348 181.649 154.595 181.445 154.642 181.192L155.115 178.699C155.163 178.447 155.408 178.211 155.662 178.168C156.671 177.997 157.656 177.765 158.598 177.47C158.843 177.394 159.23 177.414 159.463 177.522L163.246 179.274C163.479 179.382 163.848 179.366 164.071 179.237L167.802 177.083C168.024 176.954 168.036 176.728 167.827 176.578L164.871 174.451C164.662 174.301 164.642 174.034 164.816 173.844C165.248 173.371 165.599 172.881 165.872 172.38C165.994 172.154 166.287 171.95 166.543 171.934L171.515 171.619C171.772 171.603 171.98 171.381 171.98 171.124V168.35C171.98 168.093 171.772 167.871 171.515 167.855L166.543 167.541C166.287 167.524 165.994 167.321 165.872 167.094C165.6 166.593 165.248 166.102 164.816 165.63C164.643 165.44 164.662 165.173 164.871 165.023L167.828 162.895C168.036 162.745 168.025 162.519 167.802 162.391L164.071 160.237C163.85 160.106 163.48 160.09 163.247 160.197ZM157.652 166.096C161.133 168.106 161.133 171.364 157.652 173.374C154.171 175.384 148.527 175.384 145.046 173.374C141.565 171.365 141.565 168.106 145.046 166.096C148.527 164.086 154.171 164.086 157.652 166.096Z" fill="#4F46E5"/>
<path opacity="0.55" d="M163.247 160.197L159.465 161.949C159.232 162.058 158.846 162.078 158.6 162.001C157.658 161.707 156.673 161.475 155.664 161.304C155.411 161.26 155.165 161.025 155.117 160.772L154.644 158.28C154.596 158.028 154.349 157.823 154.092 157.823H148.606C148.349 157.823 148.101 158.028 148.053 158.281L147.58 160.773C147.532 161.025 147.287 161.261 147.033 161.304C146.024 161.475 145.04 161.707 144.098 162.002C143.852 162.079 143.466 162.059 143.232 161.95L139.45 160.198C139.217 160.09 138.847 160.107 138.624 160.235L134.893 162.389C134.671 162.518 134.659 162.744 134.868 162.894L137.825 165.022C138.034 165.172 138.053 165.439 137.88 165.629C137.448 166.101 137.097 166.591 136.824 167.093C136.701 167.319 136.409 167.523 136.152 167.539L131.181 167.854C130.924 167.871 130.716 168.092 130.716 168.349V171.123C130.716 171.38 130.924 171.602 131.181 171.618L136.152 171.933C136.409 171.949 136.701 172.153 136.824 172.379C137.096 172.88 137.448 173.371 137.88 173.843C138.053 174.033 138.034 174.3 137.825 174.45L134.868 176.578C134.66 176.728 134.671 176.954 134.893 177.082L138.624 179.237C138.847 179.365 139.216 179.382 139.45 179.274L143.231 177.522C143.465 177.413 143.851 177.393 144.096 177.47C145.038 177.764 146.023 177.997 147.033 178.168C147.286 178.211 147.531 178.447 147.579 178.699L148.052 181.192C148.1 181.444 148.347 181.649 148.604 181.649H154.09C154.348 181.649 154.595 181.445 154.642 181.192L155.115 178.699C155.163 178.447 155.408 178.211 155.662 178.168C156.671 177.997 157.656 177.765 158.598 177.47C158.843 177.394 159.23 177.414 159.463 177.522L163.246 179.274C163.479 179.382 163.848 179.366 164.071 179.237L167.802 177.083C168.024 176.954 168.036 176.728 167.827 176.578L164.871 174.451C164.662 174.301 164.642 174.034 164.816 173.844C165.248 173.371 165.599 172.881 165.872 172.38C165.994 172.154 166.287 171.95 166.543 171.934L171.515 171.619C171.772 171.603 171.98 171.381 171.98 171.124V168.35C171.98 168.093 171.772 167.871 171.515 167.855L166.543 167.541C166.287 167.524 165.994 167.321 165.872 167.094C165.6 166.593 165.248 166.102 164.816 165.63C164.643 165.44 164.662 165.173 164.871 165.023L167.828 162.895C168.036 162.745 168.025 162.519 167.802 162.391L164.071 160.237C163.85 160.106 163.48 160.09 163.247 160.197ZM157.652 166.096C161.133 168.106 161.133 171.364 157.652 173.374C154.171 175.384 148.527 175.384 145.046 173.374C141.565 171.365 141.565 168.106 145.046 166.096C148.527 164.086 154.171 164.086 157.652 166.096Z" fill="#E2E8F0" stroke="#E2E8F0" stroke-width="0.8321" stroke-miterlimit="10"/>
<path d="M116.136 197.846L112.632 197.48C112.134 197.428 111.69 197.185 111.378 196.795C111.067 196.405 110.928 195.916 110.988 195.418L111.094 194.545C110.695 194.41 110.308 194.262 109.943 194.102C109.918 194.094 109.828 194.073 109.669 194.073L106.994 194.911C106.786 194.976 106.562 195.01 106.328 195.01C105.756 195.01 105.172 194.808 104.767 194.471L103.011 193.01C102.564 192.639 102.335 192.093 102.396 191.552C102.459 191.011 102.806 190.531 103.325 190.27L104.99 189.434C104.982 189.411 104.974 189.387 104.966 189.363L102.188 188.888C101.674 188.8 101.227 188.5 100.961 188.065C100.695 187.63 100.632 187.095 100.788 186.599L101.265 185.079C101.524 184.249 102.345 183.645 103.295 183.645C103.297 183.645 106.385 183.775 106.385 183.775C106.421 183.767 106.497 183.732 106.517 183.714C106.614 183.615 106.716 183.517 106.82 183.421L106.082 182.636C105.685 182.213 105.525 181.665 105.643 181.131C105.762 180.597 106.139 180.167 106.677 179.951L109.428 178.849C109.692 178.743 109.984 178.69 110.296 178.69C110.798 178.69 111.282 178.828 111.661 179.079L113.488 180.293C113.526 180.312 113.634 180.339 113.717 180.341C114.327 180.234 114.961 180.155 115.538 180.111L116.18 178.863C116.536 178.168 117.309 177.701 118.103 177.701L118.241 177.705L121.745 178.07C122.243 178.122 122.688 178.366 122.999 178.755C123.311 179.146 123.449 179.635 123.389 180.132L123.283 181.005C123.682 181.141 124.069 181.29 124.434 181.448C124.459 181.457 124.55 181.477 124.708 181.478L127.384 180.64C127.591 180.574 127.816 180.541 128.049 180.541C128.622 180.541 129.205 180.743 129.61 181.078L131.366 182.541C131.813 182.911 132.042 183.457 131.98 183.997C131.919 184.54 131.571 185.019 131.051 185.28L129.387 186.116C129.395 186.139 129.403 186.163 129.41 186.186L132.19 186.662C132.702 186.75 133.149 187.049 133.415 187.484C133.681 187.918 133.745 188.452 133.59 188.951L133.113 190.471C132.854 191.302 132.032 191.905 131.082 191.905C131.081 191.905 127.995 191.775 127.995 191.775C127.957 191.783 127.88 191.82 127.861 191.835C127.764 191.934 127.663 192.033 127.557 192.13L128.296 192.915C128.692 193.339 128.851 193.887 128.733 194.421C128.615 194.954 128.239 195.385 127.701 195.6L124.949 196.701C124.686 196.808 124.395 196.861 124.082 196.861C123.578 196.861 123.094 196.722 122.717 196.472L120.889 195.257C120.852 195.239 120.744 195.212 120.66 195.21C120.051 195.317 119.416 195.396 118.838 195.44L118.198 196.688C117.841 197.383 117.068 197.85 116.274 197.85L116.136 197.846ZM113.906 185.814C112.757 186.274 111.979 186.968 111.875 187.626C111.786 188.182 112.213 188.669 112.586 188.979C113.582 189.808 115.348 190.322 117.194 190.322C118.378 190.322 119.511 190.12 120.472 189.735C121.622 189.274 122.401 188.58 122.503 187.922C122.592 187.367 122.166 186.881 121.793 186.57C120.796 185.741 119.03 185.225 117.183 185.225C115.999 185.226 114.866 185.43 113.906 185.814Z" fill="#E0E0E0"/>
<path d="M122.508 179.545C122.185 179.445 121.953 179.104 121.994 178.768L122.152 177.462C122.192 177.127 121.953 176.826 121.617 176.791L118.178 176.432C117.841 176.397 117.444 176.612 117.29 176.913L116.605 178.247C116.45 178.548 116.051 178.803 115.714 178.828C115.115 178.874 114.519 178.947 113.932 179.049C113.599 179.107 113.103 179.014 112.822 178.827L110.971 177.598C110.69 177.411 110.207 177.361 109.894 177.487L107.141 178.589C106.959 178.662 106.863 178.795 106.858 178.941L106.855 178.939V178.971C106.855 178.973 106.855 178.974 106.855 178.975L106.854 181.786L106.856 181.785C106.856 181.887 106.899 181.995 106.992 182.095L107.152 182.265C106.918 182.408 106.631 182.509 106.394 182.499L103.25 182.372C102.912 182.359 102.556 182.609 102.455 182.932L101.979 184.452C101.959 184.517 101.958 184.579 101.96 184.64L101.952 184.639L101.951 187.478L101.954 187.477C101.963 187.722 102.133 187.927 102.399 187.972L104.835 188.389L103.886 188.866C103.72 188.949 103.638 189.076 103.638 189.21L103.635 189.208L103.635 192.052L103.638 192.05C103.64 192.158 103.694 192.269 103.809 192.364L105.565 193.826C105.825 194.042 106.297 194.135 106.62 194.034L109.296 193.195C109.619 193.094 110.125 193.135 110.435 193.27C110.892 193.468 111.372 193.644 111.869 193.798C112.01 193.842 112.131 193.932 112.222 194.047L112.222 195.964L112.224 195.965C112.229 196.265 112.453 196.52 112.761 196.552L116.2 196.911C116.536 196.947 116.934 196.731 117.088 196.431L117.773 195.096C117.928 194.795 118.327 194.541 118.664 194.515C119.263 194.47 119.859 194.396 120.445 194.294C120.778 194.236 121.274 194.33 121.556 194.517L123.406 195.746C123.688 195.933 124.171 195.983 124.484 195.857L127.236 194.755C127.425 194.679 127.522 194.54 127.521 194.388L127.523 194.39L127.524 191.555L127.522 191.554C127.521 191.453 127.478 191.346 127.386 191.248L127.226 191.078C127.459 190.935 127.746 190.834 127.983 190.843L131.128 190.971C131.465 190.984 131.821 190.734 131.922 190.411L132.398 188.891C132.417 188.832 132.423 188.774 132.423 188.718L132.426 188.717L132.426 185.891L132.415 185.897C132.42 185.64 132.254 185.418 131.979 185.371L129.542 184.954L130.491 184.477C130.659 184.393 130.741 184.263 130.739 184.127L130.742 184.129L130.743 181.305L130.74 181.306C130.742 181.195 130.687 181.078 130.568 180.979L128.811 179.517C128.552 179.301 128.08 179.208 127.757 179.308L125.08 180.147C124.758 180.248 124.252 180.208 123.942 180.073C123.486 179.875 123.006 179.699 122.508 179.545ZM111.094 186.67C111.556 186.006 112.346 185.409 113.442 184.969C116.425 183.775 120.52 184.202 122.589 185.925C122.884 186.17 123.112 186.418 123.289 186.665C122.828 187.333 122.035 187.933 120.935 188.373C117.953 189.568 113.857 189.14 111.788 187.418C111.501 187.18 111.274 186.928 111.094 186.67Z" fill="#4F46E5"/>
<path opacity="0.2" d="M122.508 179.545C122.185 179.445 121.953 179.104 121.994 178.768L122.152 177.462C122.192 177.127 121.953 176.826 121.617 176.791L118.178 176.432C117.841 176.397 117.444 176.612 117.29 176.913L116.605 178.247C116.45 178.548 116.051 178.803 115.714 178.828C115.115 178.874 114.519 178.947 113.932 179.049C113.599 179.107 113.103 179.014 112.822 178.827L110.971 177.598C110.69 177.411 110.207 177.361 109.894 177.487L107.141 178.589C106.959 178.662 106.863 178.795 106.858 178.941L106.855 178.939V178.971C106.855 178.973 106.855 178.974 106.855 178.975L106.854 181.786L106.856 181.785C106.856 181.887 106.899 181.995 106.992 182.095L107.152 182.265C106.918 182.408 106.631 182.509 106.394 182.499L103.25 182.372C102.912 182.359 102.556 182.609 102.455 182.932L101.979 184.452C101.959 184.517 101.958 184.579 101.96 184.64L101.952 184.639L101.951 187.478L101.954 187.477C101.963 187.722 102.133 187.927 102.399 187.972L104.835 188.389L103.886 188.866C103.72 188.949 103.638 189.076 103.638 189.21L103.635 189.208L103.635 192.052L103.638 192.05C103.64 192.158 103.694 192.269 103.809 192.364L105.565 193.826C105.825 194.042 106.297 194.135 106.62 194.034L109.296 193.195C109.619 193.094 110.125 193.135 110.435 193.27C110.892 193.468 111.372 193.644 111.869 193.798C112.01 193.842 112.131 193.932 112.222 194.047L112.222 195.964L112.224 195.965C112.229 196.265 112.453 196.52 112.761 196.552L116.2 196.911C116.536 196.947 116.934 196.731 117.088 196.431L117.773 195.096C117.928 194.795 118.327 194.541 118.664 194.515C119.263 194.47 119.859 194.396 120.445 194.294C120.778 194.236 121.274 194.33 121.556 194.517L123.406 195.746C123.688 195.933 124.171 195.983 124.484 195.857L127.236 194.755C127.425 194.679 127.522 194.54 127.521 194.388L127.523 194.39L127.524 191.555L127.522 191.554C127.521 191.453 127.478 191.346 127.386 191.248L127.226 191.078C127.459 190.935 127.746 190.834 127.983 190.843L131.128 190.971C131.465 190.984 131.821 190.734 131.922 190.411L132.398 188.891C132.417 188.832 132.423 188.774 132.423 188.718L132.426 188.717L132.426 185.891L132.415 185.897C132.42 185.64 132.254 185.418 131.979 185.371L129.542 184.954L130.491 184.477C130.659 184.393 130.741 184.263 130.739 184.127L130.742 184.129L130.743 181.305L130.74 181.306C130.742 181.195 130.687 181.078 130.568 180.979L128.811 179.517C128.552 179.301 128.08 179.208 127.757 179.308L125.08 180.147C124.758 180.248 124.252 180.208 123.942 180.073C123.486 179.875 123.006 179.699 122.508 179.545ZM111.094 186.67C111.556 186.006 112.346 185.409 113.442 184.969C116.425 183.775 120.52 184.202 122.589 185.925C122.884 186.17 123.112 186.418 123.289 186.665C122.828 187.333 122.035 187.933 120.935 188.373C117.953 189.568 113.857 189.14 111.788 187.418C111.501 187.18 111.274 186.928 111.094 186.67Z" fill="#E2E8F0"/>
<path opacity="0.1" d="M106.121 186.351C106.024 186.028 105.72 185.708 105.391 185.651L102.398 185.14C102.142 185.092 101.972 184.905 101.956 184.673L101.953 187.478C101.963 187.722 102.134 187.926 102.396 187.972L104.833 188.39L106.093 187.757C106.397 187.605 106.49 187.252 106.344 186.946C106.253 186.748 106.178 186.55 106.121 186.351ZM106.852 181.783L106.856 181.786C106.854 181.885 106.898 181.993 106.989 182.095L107.151 182.267C107.251 182.208 107.342 182.138 107.411 182.067C107.634 181.834 107.886 181.608 108.164 181.396C108.429 181.188 108.472 180.835 108.241 180.59L106.99 179.263C106.897 179.164 106.854 179.056 106.856 178.957L106.852 181.783Z" fill="black"/>
<path opacity="0.1" d="M113.443 182.138C110.869 183.169 109.962 185.068 111.097 186.673C111.555 186.004 112.347 185.411 113.441 184.97C116.425 183.776 120.519 184.201 122.591 185.925C122.882 186.171 123.113 186.415 123.285 186.665C124.082 185.525 123.898 184.179 122.592 183.092C120.521 181.368 116.427 180.944 113.443 182.138Z" fill="black"/>
<path d="M118.061 191.932C117.939 192.028 117.835 192.141 117.776 192.262L117.088 193.599C116.99 193.787 116.795 193.941 116.581 194.023L116.579 196.856C116.798 196.776 116.988 196.62 117.086 196.431L117.774 195.095C117.833 194.974 117.945 194.866 118.067 194.77L118.061 191.932ZM127.523 191.556C127.523 191.556 127.523 191.556 127.52 191.554C127.525 191.708 127.424 191.844 127.234 191.923L124.487 193.025C124.283 193.108 124.01 193.111 123.765 193.053L123.763 195.886C124.01 195.939 124.281 195.94 124.484 195.858L127.239 194.754C127.427 194.679 127.523 194.54 127.522 194.389L127.523 191.556ZM109.263 190.37L106.622 191.2C106.426 191.26 106.179 191.256 105.956 191.188L105.953 194.014C106.178 194.077 106.422 194.096 106.62 194.033L109.265 193.204L109.263 190.37ZM132.427 185.892C132.424 185.946 132.414 186.001 132.397 186.058L131.924 187.58C131.821 187.904 131.465 188.154 131.13 188.138L127.985 188.012C127.833 188.007 127.66 188.046 127.494 188.111L127.493 190.944C127.658 190.879 127.831 190.839 127.984 190.844L131.128 190.971C131.466 190.982 131.821 190.732 131.923 190.413L132.396 188.891C132.418 188.832 132.424 188.774 132.423 188.718L132.427 185.892ZM130.747 181.306C130.745 181.338 130.736 181.372 130.724 181.403C130.71 181.456 130.677 181.504 130.629 181.548C130.592 181.583 130.545 181.617 130.49 181.646L128.282 182.755C128.229 182.78 128.182 182.813 128.149 182.85C128.078 182.915 128.029 182.992 128 183.08C127.976 183.15 127.963 183.22 127.967 183.3C127.969 183.335 127.973 183.376 127.98 183.413C127.994 183.466 128.01 183.514 128.031 183.565C128.122 183.762 128.199 183.957 128.256 184.156C128.351 184.483 128.655 184.803 128.988 184.862L129.541 184.954L130.492 184.48C130.659 184.393 130.74 184.262 130.739 184.129L130.743 184.131L130.747 181.306Z" fill="#4F46E5"/>
<path opacity="0.7" d="M118.061 191.932C117.939 192.028 117.835 192.141 117.776 192.262L117.088 193.599C116.99 193.787 116.795 193.941 116.581 194.023L116.579 196.856C116.798 196.776 116.988 196.62 117.086 196.431L117.774 195.095C117.833 194.974 117.945 194.866 118.067 194.77L118.061 191.932ZM127.523 191.556C127.523 191.556 127.523 191.556 127.52 191.554C127.525 191.708 127.424 191.844 127.234 191.923L124.487 193.025C124.283 193.108 124.01 193.111 123.765 193.053L123.763 195.886C124.01 195.939 124.281 195.94 124.484 195.858L127.239 194.754C127.427 194.679 127.523 194.54 127.522 194.389L127.523 191.556ZM109.263 190.37L106.622 191.2C106.426 191.26 106.179 191.256 105.956 191.188L105.953 194.014C106.178 194.077 106.422 194.096 106.62 194.033L109.265 193.204L109.263 190.37ZM132.427 185.892C132.424 185.946 132.414 186.001 132.397 186.058L131.924 187.58C131.821 187.904 131.465 188.154 131.13 188.138L127.985 188.012C127.833 188.007 127.66 188.046 127.494 188.111L127.493 190.944C127.658 190.879 127.831 190.839 127.984 190.844L131.128 190.971C131.466 190.982 131.821 190.732 131.923 190.413L132.396 188.891C132.418 188.832 132.424 188.774 132.423 188.718L132.427 185.892ZM130.747 181.306C130.745 181.338 130.736 181.372 130.724 181.403C130.71 181.456 130.677 181.504 130.629 181.548C130.592 181.583 130.545 181.617 130.49 181.646L128.282 182.755C128.229 182.78 128.182 182.813 128.149 182.85C128.078 182.915 128.029 182.992 128 183.08C127.976 183.15 127.963 183.22 127.967 183.3C127.969 183.335 127.973 183.376 127.98 183.413C127.994 183.466 128.01 183.514 128.031 183.565C128.122 183.762 128.199 183.957 128.256 184.156C128.351 184.483 128.655 184.803 128.988 184.862L129.541 184.954L130.492 184.48C130.659 184.393 130.74 184.262 130.739 184.129L130.743 184.131L130.747 181.306Z" fill="#E2E8F0"/>
<path d="M127.758 179.31L125.081 180.149C124.759 180.249 124.253 180.209 123.943 180.074C123.486 179.876 123.006 179.699 122.508 179.546C122.185 179.446 121.953 179.105 121.994 178.769L122.152 177.463C122.192 177.128 121.953 176.827 121.616 176.792L118.177 176.433C117.841 176.398 117.444 176.613 117.289 176.914L116.604 178.248C116.45 178.549 116.051 178.804 115.714 178.829C115.115 178.874 114.519 178.947 113.932 179.05C113.599 179.108 113.103 179.015 112.822 178.828L110.971 177.599C110.69 177.412 110.207 177.362 109.893 177.488L107.141 178.59C106.827 178.716 106.761 179.017 106.992 179.263L108.24 180.591C108.472 180.838 108.43 181.188 108.164 181.396C107.887 181.612 107.636 181.836 107.411 182.067C107.175 182.309 106.732 182.514 106.394 182.5L103.249 182.373C102.911 182.36 102.556 182.61 102.455 182.933L101.978 184.453C101.877 184.776 102.065 185.083 102.399 185.14L105.39 185.652C105.723 185.708 106.025 186.028 106.12 186.353C106.179 186.552 106.254 186.75 106.346 186.947C106.488 187.253 106.396 187.606 106.093 187.758L103.886 188.866C103.584 189.018 103.55 189.316 103.809 189.533L105.566 190.995C105.825 191.211 106.297 191.304 106.62 191.203L109.297 190.364C109.619 190.263 110.126 190.304 110.436 190.438C110.893 190.637 111.372 190.813 111.87 190.967C112.193 191.067 112.425 191.408 112.385 191.744L112.227 193.05C112.186 193.386 112.426 193.686 112.762 193.721L116.201 194.08C116.537 194.116 116.934 193.9 117.089 193.599L117.774 192.265C117.928 191.964 118.327 191.71 118.664 191.684C119.264 191.639 119.86 191.566 120.446 191.463C120.779 191.405 121.275 191.499 121.557 191.686L123.407 192.915C123.689 193.102 124.171 193.152 124.485 193.026L127.237 191.923C127.551 191.798 127.618 191.496 127.386 191.25L126.137 189.922C125.906 189.676 125.947 189.325 126.214 189.118C126.49 188.902 126.741 188.678 126.966 188.446C127.202 188.204 127.646 188 127.984 188.013L131.128 188.14C131.465 188.154 131.821 187.903 131.922 187.581L132.399 186.06C132.5 185.738 132.312 185.43 131.978 185.373L128.987 184.861C128.654 184.805 128.352 184.485 128.257 184.161C128.198 183.961 128.123 183.763 128.032 183.566C127.889 183.26 127.982 182.907 128.284 182.755L130.492 181.647C130.794 181.496 130.828 181.198 130.568 180.982L128.812 179.519C128.553 179.302 128.081 179.208 127.758 179.31ZM122.59 183.093C124.659 184.815 123.918 187.179 120.935 188.374C117.953 189.569 113.857 189.14 111.788 187.419C109.718 185.697 110.459 183.332 113.442 182.137C116.425 180.942 120.521 181.37 122.59 183.093Z" fill="#4F46E5"/>
<path opacity="0.55" d="M127.758 179.31L125.081 180.149C124.759 180.249 124.253 180.209 123.943 180.074C123.486 179.876 123.006 179.699 122.508 179.546C122.185 179.446 121.953 179.105 121.994 178.769L122.152 177.463C122.192 177.128 121.953 176.827 121.616 176.792L118.177 176.433C117.841 176.398 117.444 176.613 117.289 176.914L116.604 178.248C116.45 178.549 116.051 178.804 115.714 178.829C115.115 178.874 114.519 178.947 113.932 179.05C113.599 179.108 113.103 179.015 112.822 178.828L110.971 177.599C110.69 177.412 110.207 177.362 109.893 177.488L107.141 178.59C106.827 178.716 106.761 179.017 106.992 179.263L108.24 180.591C108.472 180.838 108.43 181.188 108.164 181.396C107.887 181.612 107.636 181.836 107.411 182.067C107.175 182.309 106.732 182.514 106.394 182.5L103.249 182.373C102.911 182.36 102.556 182.61 102.455 182.933L101.978 184.453C101.877 184.776 102.065 185.083 102.399 185.14L105.39 185.652C105.723 185.708 106.025 186.028 106.12 186.353C106.179 186.552 106.254 186.75 106.346 186.947C106.488 187.253 106.396 187.606 106.093 187.758L103.886 188.866C103.584 189.018 103.55 189.316 103.809 189.533L105.566 190.995C105.825 191.211 106.297 191.304 106.62 191.203L109.297 190.364C109.619 190.263 110.126 190.304 110.436 190.438C110.893 190.637 111.372 190.813 111.87 190.967C112.193 191.067 112.425 191.408 112.385 191.744L112.227 193.05C112.186 193.386 112.426 193.686 112.762 193.721L116.201 194.08C116.537 194.116 116.934 193.9 117.089 193.599L117.774 192.265C117.928 191.964 118.327 191.71 118.664 191.684C119.264 191.639 119.86 191.566 120.446 191.463C120.779 191.405 121.275 191.499 121.557 191.686L123.407 192.915C123.689 193.102 124.171 193.152 124.485 193.026L127.237 191.923C127.551 191.798 127.618 191.496 127.386 191.25L126.137 189.922C125.906 189.676 125.947 189.325 126.214 189.118C126.49 188.902 126.741 188.678 126.966 188.446C127.202 188.204 127.646 188 127.984 188.013L131.128 188.14C131.465 188.154 131.821 187.903 131.922 187.581L132.399 186.06C132.5 185.738 132.312 185.43 131.978 185.373L128.987 184.861C128.654 184.805 128.352 184.485 128.257 184.161C128.198 183.961 128.123 183.763 128.032 183.566C127.889 183.26 127.982 182.907 128.284 182.755L130.492 181.647C130.794 181.496 130.828 181.198 130.568 180.982L128.812 179.519C128.553 179.302 128.081 179.208 127.758 179.31ZM122.59 183.093C124.659 184.815 123.918 187.179 120.935 188.374C117.953 189.569 113.857 189.14 111.788 187.419C109.718 185.697 110.459 183.332 113.442 182.137C116.425 180.942 120.521 181.37 122.59 183.093Z" fill="#E2E8F0" stroke="#E2E8F0" stroke-width="1.0936" stroke-miterlimit="10"/>
<path d="M155.467 21.4949L155.446 41.7248C155.441 41.936 155.99 41.9465 155.998 41.7287L156.019 21.5521L155.467 21.4949Z" fill="#455A64"/>
<path d="M156.108 21.6014C156.065 21.802 155.868 21.9296 155.667 21.8865C155.467 21.8438 155.339 21.6463 155.382 21.4456C155.425 21.245 155.622 21.1174 155.822 21.1601C156.023 21.2032 156.151 21.4007 156.108 21.6014Z" fill="#37474F"/>
<path d="M155.464 21.7596C153.765 23.7863 151.355 22.8816 149.367 22.7628C147.213 22.6339 145.902 23.3291 145.25 24.2742C145.871 24.1088 147.616 24.2659 148.166 24.7217C148.166 24.7217 145.972 26.1561 145.969 28.5061C146.608 27.5104 147.719 26.7607 149.868 27.2024C151.756 27.5905 154.147 28.4591 155.458 27.0053L155.464 21.7596Z" fill="#4F46E5"/>
<path opacity="0.1" d="M153.366 27.009C151.631 27.5352 146.901 25.2287 145.969 28.5058C146.608 27.5101 147.719 26.7604 149.868 27.2021C151.756 27.5902 154.147 28.4588 155.458 27.005L155.464 21.7589C155.457 23.8238 155.102 26.4827 153.366 27.009Z" fill="black"/>
<path d="M151.946 23.7547L152.244 24.662L153.191 24.7896C153.248 24.7971 153.266 24.8701 153.22 24.904L152.449 25.4681L152.62 26.4079C152.63 26.4642 152.567 26.5047 152.52 26.4708L151.746 25.912L150.905 26.3652C150.854 26.3925 150.796 26.3441 150.814 26.2896L151.106 25.3801L150.415 24.7205C150.374 24.6809 150.402 24.611 150.459 24.6105L151.414 24.6074L151.828 23.7468C151.853 23.6953 151.928 23.7002 151.946 23.7547Z" fill="#E2E8F0"/>
<path d="M137.01 37.9813L136.982 64.6382C136.976 64.9163 137.698 64.9299 137.709 64.6435L137.738 38.0561L137.01 37.9813Z" fill="#37474F"/>
<path d="M137.854 38.1212C137.797 38.3856 137.537 38.5537 137.273 38.4974C137.009 38.4406 136.841 38.1806 136.897 37.9166C136.954 37.6521 137.214 37.4841 137.478 37.5404C137.742 37.5971 137.911 37.8572 137.854 38.1212Z" fill="#37474F"/>
<path d="M137.007 38.3297C134.767 41.0005 131.591 39.8081 128.972 39.6515C126.133 39.4817 124.407 40.3977 123.547 41.6429C124.366 41.4251 126.665 41.6319 127.39 42.2325C127.39 42.2325 124.498 44.1228 124.495 47.2195C125.336 45.9079 126.8 44.9196 129.633 45.5017C132.121 46.013 135.271 47.1575 136.999 45.2421L137.007 38.3297Z" fill="#4F46E5"/>
<path opacity="0.1" d="M134.242 45.2474C131.955 45.9409 125.723 42.9013 124.494 47.2199C125.336 45.9083 126.8 44.9201 129.633 45.5022C132.121 46.0135 135.271 47.1579 136.998 45.2426L137.007 38.3297C136.997 41.0503 136.528 44.554 134.242 45.2474Z" fill="black"/>
<path d="M112.127 54.4672L112.092 87.5516C112.084 87.8966 112.981 87.9138 112.995 87.5582L113.03 54.5604L112.127 54.4672Z" fill="#37474F"/>
<path d="M113.175 54.6414C113.104 54.9692 112.782 55.1782 112.453 55.1082C112.126 55.0378 111.917 54.7153 111.987 54.3875C112.057 54.0597 112.38 53.8507 112.708 53.9207C113.036 53.9906 113.245 54.3132 113.175 54.6414Z" fill="#37474F"/>
<path d="M112.123 54.8997C109.343 58.2142 105.401 56.7349 102.15 56.5405C98.6273 56.3297 96.4841 57.4666 95.4166 59.0119C96.433 58.7413 99.2873 58.9983 100.187 59.7441C100.187 59.7441 96.5976 62.0902 96.5932 65.9336C97.6373 64.3056 99.4541 63.0788 102.97 63.8018C106.058 64.4362 109.967 65.857 112.112 63.4797L112.123 54.8997Z" fill="#4F46E5"/>
<path opacity="0.1" d="M108.691 63.4854C105.853 64.346 98.1178 60.5739 96.5936 65.9336C97.6378 64.3056 99.4545 63.0788 102.971 63.8018C106.058 64.4362 109.968 65.857 112.112 63.4797L112.123 54.9001C112.11 58.2767 111.529 62.6248 108.691 63.4854Z" fill="black"/>
<path d="M86.1247 71.3711L86.0825 110.883C86.0737 111.295 87.1446 111.316 87.1605 110.891L87.2027 71.4824L86.1247 71.3711Z" fill="#37474F"/>
<path d="M87.3756 71.5792C87.2916 71.9708 86.9062 72.2203 86.5146 72.1367C86.123 72.0531 85.873 71.6672 85.9571 71.2756C86.0411 70.884 86.4266 70.6345 86.8182 70.7181C87.2102 70.8017 87.4597 71.1876 87.3756 71.5792Z" fill="#37474F"/>
<path d="M86.119 71.8876C82.7992 75.8463 78.0921 74.0793 74.2091 73.847C70.0022 73.5953 67.4428 74.9531 66.1672 76.7989C67.3812 76.476 70.7894 76.7826 71.8639 77.6732C71.8639 77.6732 67.5774 80.4751 67.5726 85.0652C68.82 83.1208 70.9896 81.6561 75.1885 82.5189C78.8766 83.277 83.5454 84.9732 86.1062 82.1344L86.119 71.8876Z" fill="#4F46E5"/>
<path opacity="0.1" d="M82.0208 82.1414C78.6315 83.1692 69.3937 78.6641 67.573 85.0652C68.8204 83.1208 70.99 81.6561 75.189 82.5189C78.877 83.277 83.5459 84.9732 86.1067 82.1343L86.119 71.8881C86.1045 75.9207 85.4102 81.1135 82.0208 82.1414Z" fill="black"/>
<path d="M168.367 15.0462L167.921 14.1165L169.87 12.9923C170.101 12.859 170.346 12.7552 170.606 12.6852C170.695 12.6614 170.786 12.6421 170.878 12.6258C171.307 12.5514 171.766 12.5616 172.25 12.6632C172.413 12.6971 172.578 12.7411 172.745 12.7965C172.913 12.8506 173.083 12.9158 173.256 12.9928C173.472 13.0874 173.691 13.1991 173.913 13.3289C174.144 13.4644 174.372 13.6136 174.597 13.7782C174.766 13.9018 174.933 14.0329 175.098 14.1728C177.517 16.2149 179.421 19.8554 179.904 23.357C179.938 23.5959 179.964 23.833 179.982 24.0693C180.011 24.4077 180.025 24.7438 180.024 25.0756C180.022 25.3471 180.012 25.6102 179.992 25.8641C179.974 26.0841 179.949 26.2966 179.917 26.5021C179.886 26.7067 179.847 26.9042 179.802 27.0948V27.0956C179.67 27.6637 179.478 28.1662 179.237 28.5974C179.184 28.6902 179.13 28.7808 179.074 28.8671C178.827 29.2446 178.537 29.5579 178.21 29.8003C178.108 29.8769 178.002 29.9455 177.892 30.0084L176.05 31.0724L175.642 30.2214C175.534 30.1972 175.424 30.1695 175.314 30.136C174.9 30.012 174.471 29.8236 174.031 29.5676C173.776 29.4184 173.525 29.2516 173.278 29.0673C172.961 28.831 172.652 28.5674 172.353 28.2788C170.334 26.3353 168.743 23.2945 168.161 20.2677C168.073 19.818 168.01 19.3688 167.97 18.924C167.936 18.553 167.919 18.1843 167.92 17.8209C167.922 17.2603 167.966 16.7372 168.049 16.2558C168.124 15.8171 168.231 15.4136 168.367 15.0462Z" fill="#4F46E5"/>
<path opacity="0.25" d="M179.46 21.2863L175.505 23.5699L174.984 22.0656L178.943 19.7793C179.14 20.2734 179.313 20.7777 179.46 21.2863Z" fill="#E2E8F0"/>
<path opacity="0.25" d="M169.871 12.9923C170.102 12.859 170.347 12.7552 170.606 12.6852C170.695 12.6614 170.786 12.6421 170.879 12.6258C171.307 12.5514 171.766 12.5616 172.25 12.6632C172.31 12.6755 172.371 12.6909 172.432 12.7063L168.363 15.0559C168.364 15.0524 168.365 15.0489 168.367 15.0458L167.921 14.1161L169.871 12.9923Z" fill="#E2E8F0"/>
<path opacity="0.25" d="M170.295 18.7673L169.774 18.1408L175.703 14.7272C175.892 14.9138 176.076 15.11 176.257 15.3146L170.295 18.7673Z" fill="#E2E8F0"/>
<path opacity="0.25" d="M177.515 16.9928L172.379 19.9593L171.813 18.4805L176.596 15.7181C176.92 16.1172 177.227 16.544 177.515 16.9928Z" fill="#E2E8F0"/>
<path opacity="0.4" d="M169.871 12.9923C170.102 12.859 170.347 12.7552 170.606 12.6852C170.695 12.6614 170.786 12.6421 170.879 12.6258C171.307 12.5514 171.767 12.5616 172.251 12.6632C172.413 12.6971 172.578 12.7411 172.745 12.7965C172.913 12.8506 173.084 12.9158 173.256 12.9928C173.472 13.0874 173.691 13.1991 173.913 13.3289C174.144 13.4644 174.372 13.6136 174.597 13.7782C174.766 13.9018 174.933 14.0329 175.098 14.1728C177.352 16.075 179.157 19.364 179.785 22.6349L171.534 27.3992C169.91 25.4822 168.662 22.8703 168.161 20.2668C168.074 19.8172 168.01 19.3679 167.97 18.9231C167.937 18.5522 167.92 18.1834 167.921 17.82C167.923 17.2594 167.967 16.7363 168.05 16.2549C168.124 15.8171 168.231 15.4136 168.367 15.0458L167.921 14.1161L169.871 12.9923Z" fill="#E2E8F0"/>
<path opacity="0.1" d="M176.051 31.0719L175.643 30.221C175.534 30.1968 175.425 30.1691 175.315 30.1356C174.901 30.0115 174.472 29.8232 174.032 29.5671C173.777 29.418 173.526 29.2512 173.279 29.0669C172.962 28.8306 172.653 28.567 172.354 28.2784C172.072 28.0065 171.799 27.7117 171.534 27.3997L179.785 22.6354C179.831 22.8761 179.872 23.1167 179.905 23.357C179.938 23.5959 179.964 23.8331 179.983 24.0693C180.011 24.4077 180.026 24.7439 180.024 25.0756C180.023 25.3471 180.013 25.6102 179.992 25.8641C179.975 26.0841 179.949 26.2966 179.918 26.5021C179.886 26.7067 179.848 26.9043 179.803 27.0948V27.0957C179.67 27.6637 179.478 28.1662 179.237 28.5974C179.185 28.6902 179.131 28.7809 179.074 28.8671C178.827 29.2446 178.537 29.5579 178.211 29.8003C178.108 29.8769 178.002 29.9455 177.892 30.0085L176.051 31.0719Z" fill="black"/>
<path opacity="0.1" d="M179.238 28.5965C179.185 28.6893 179.131 28.78 179.075 28.8662C178.827 29.2437 178.537 29.557 178.211 29.7994C178.108 29.876 178.002 29.9446 177.893 30.0076L176.051 31.0715L175.643 30.2205C175.637 30.2192 175.632 30.2179 175.626 30.2166L175.597 29.8676L179.695 27.5009C179.573 27.9052 179.42 28.2713 179.238 28.5965Z" fill="black"/>
<path d="M165.837 19.023C165.836 19.386 165.853 19.7551 165.886 20.126C165.926 20.5704 165.99 21.0201 166.077 21.4698C166.659 24.4966 168.25 27.5374 170.27 29.4809C170.569 29.7695 170.878 30.0331 171.195 30.2694C171.442 30.4542 171.692 30.6209 171.948 30.7696C172.388 31.0257 172.817 31.2145 173.231 31.3381C173.708 31.4816 174.164 31.5392 174.593 31.5154C175.229 31.4829 175.805 31.2726 176.298 30.9038C176.625 30.661 176.915 30.3481 177.162 29.9706C177.218 29.8839 177.272 29.7937 177.325 29.7009C177.566 29.2697 177.758 28.7676 177.891 28.1992V28.1983C177.936 28.0078 177.974 27.8102 178.006 27.6056C178.037 27.4001 178.062 27.1876 178.08 26.9676C178.101 26.7137 178.111 26.4506 178.112 26.1791C178.113 25.8474 178.099 25.5112 178.071 25.1728C178.052 24.9366 178.026 24.6994 177.992 24.4605C177.509 20.9594 175.605 17.3188 173.186 15.2764C173.021 15.1364 172.854 15.0053 172.685 14.8817C172.46 14.7171 172.232 14.5675 172.001 14.432C171.779 14.3022 171.56 14.1904 171.344 14.0958C171.172 14.0188 171.001 13.9533 170.833 13.8996C170.666 13.8446 170.5 13.8002 170.338 13.7663C169.854 13.6642 169.395 13.6545 168.966 13.7289C168.874 13.7452 168.783 13.765 168.693 13.7883C168.303 13.8939 167.943 14.0716 167.619 14.3198C167.13 14.6942 166.723 15.2271 166.423 15.902C166.22 16.3579 166.064 16.8771 165.966 17.4561C165.883 17.9397 165.839 18.4624 165.837 19.023Z" fill="#4F46E5"/>
<path opacity="0.1" d="M165.837 19.023C165.836 19.386 165.853 19.7551 165.886 20.126C165.926 20.5704 165.99 21.0201 166.077 21.4698C166.659 24.4966 168.25 27.5374 170.27 29.4809C170.569 29.7695 170.878 30.0331 171.195 30.2694C171.442 30.4542 171.692 30.6209 171.948 30.7696C172.388 31.0257 172.817 31.2145 173.231 31.3381C173.708 31.4816 174.164 31.5392 174.593 31.5154C175.229 31.4829 175.805 31.2726 176.298 30.9038C176.625 30.661 176.915 30.3481 177.162 29.9706C177.218 29.8839 177.272 29.7937 177.325 29.7009C177.566 29.2697 177.758 28.7676 177.891 28.1992V28.1983C177.936 28.0078 177.974 27.8102 178.006 27.6056C178.037 27.4001 178.062 27.1876 178.08 26.9676C178.101 26.7137 178.111 26.4506 178.112 26.1791C178.113 25.8474 178.099 25.5112 178.071 25.1728C178.052 24.9366 178.026 24.6994 177.992 24.4605C177.509 20.9594 175.605 17.3188 173.186 15.2764C173.021 15.1364 172.854 15.0053 172.685 14.8817C172.46 14.7171 172.232 14.5675 172.001 14.432C171.779 14.3022 171.56 14.1904 171.344 14.0958C171.172 14.0188 171.001 13.9533 170.833 13.8996C170.666 13.8446 170.5 13.8002 170.338 13.7663C169.854 13.6642 169.395 13.6545 168.966 13.7289C168.874 13.7452 168.783 13.765 168.693 13.7883C168.303 13.8939 167.943 14.0716 167.619 14.3198C167.13 14.6942 166.723 15.2271 166.423 15.902C166.22 16.3579 166.064 16.8771 165.966 17.4561C165.883 17.9397 165.839 18.4624 165.837 19.023Z" fill="#E2E8F0"/>
<path opacity="0.05" d="M177.871 23.7349C177.918 23.9774 177.958 24.2198 177.992 24.4614C178.025 24.7003 178.051 24.9374 178.07 25.1737C178.099 25.5121 178.113 25.8482 178.112 26.18C178.11 26.4515 178.1 26.7146 178.079 26.9685C178.062 27.1885 178.037 27.401 178.005 27.6065C177.973 27.8111 177.935 28.0086 177.89 28.1992V28.2C177.757 28.7681 177.566 29.2706 177.324 29.7018C177.272 29.7946 177.218 29.8852 177.162 29.9715C176.914 30.349 176.624 30.6623 176.298 30.9047C175.805 31.2734 175.229 31.4838 174.593 31.5163C174.164 31.5401 173.707 31.4824 173.23 31.339C172.816 31.2149 172.387 31.0266 171.948 30.7705C171.721 30.6381 171.498 30.4894 171.278 30.3288L177.871 23.7349Z" fill="black"/>
<path opacity="0.05" d="M177.776 28.6229C177.655 29.0202 177.504 29.3806 177.324 29.7009C177.272 29.7937 177.218 29.8844 177.162 29.9706C176.914 30.3481 176.624 30.6614 176.298 30.9039C175.891 31.2083 175.426 31.4028 174.919 31.4803L177.776 28.6229Z" fill="black"/>
<path opacity="0.15" d="M177.032 20.8864C177.228 21.3801 177.401 21.8839 177.547 22.3916L170.367 29.5724C170.335 29.5421 170.302 29.5121 170.269 29.4809C169.965 29.1883 169.672 28.868 169.389 28.5292L177.032 20.8864Z" fill="#E2E8F0"/>
<path opacity="0.15" d="M174.684 16.8225C175.008 17.2221 175.315 17.6493 175.603 18.0977L167.699 26.0014C167.442 25.5196 167.207 25.0202 166.997 24.5102L174.684 16.8225Z" fill="#E2E8F0"/>
<path opacity="0.15" d="M173.788 15.8303C173.978 16.0182 174.164 16.2158 174.345 16.4221L166.789 23.9787C166.683 23.6958 166.584 23.4111 166.494 23.1233L173.788 15.8303Z" fill="#E2E8F0"/>
<path opacity="0.15" d="M165.855 18.477C165.863 18.3309 165.874 18.1879 165.888 18.0475C165.893 18.0009 165.897 17.9538 165.903 17.9076C165.908 17.8596 165.914 17.8126 165.92 17.7655C165.934 17.6616 165.949 17.5587 165.966 17.4584C166.065 16.8789 166.219 16.3601 166.422 15.9043C166.722 15.2289 167.129 14.6965 167.619 14.322C167.943 14.0739 168.303 13.8957 168.693 13.7905C168.782 13.7668 168.874 13.7474 168.966 13.7311C169.394 13.6568 169.854 13.6669 170.338 13.7685C170.398 13.7808 170.459 13.7967 170.52 13.8121L165.855 18.477Z" fill="#E2E8F0"/>
<path d="M167.401 19.9619C167.401 23.1924 169.285 26.9223 171.668 28.5085C171.769 28.5758 171.872 28.64 171.975 28.6994C174.501 30.1576 176.548 28.6101 176.548 25.2424C176.548 21.8746 174.501 17.9621 171.975 16.504C171.872 16.4446 171.769 16.39 171.668 16.3407C169.284 15.1747 167.401 16.731 167.401 19.9619Z" fill="#4F46E5"/>
<path opacity="0.4" d="M167.401 19.9619C167.401 23.1924 169.285 26.9223 171.668 28.5085C171.769 28.5758 171.872 28.64 171.975 28.6994C174.501 30.1576 176.548 28.6101 176.548 25.2424C176.548 21.8746 174.501 17.9621 171.975 16.504C171.872 16.4446 171.769 16.39 171.668 16.3407C169.284 15.1747 167.401 16.731 167.401 19.9619Z" fill="black"/>
<path d="M167.604 20.0794C167.604 20.1833 167.606 20.288 167.611 20.3936C167.726 23.4045 169.481 26.7806 171.681 28.2458C171.702 28.259 171.721 28.2718 171.741 28.285C171.818 28.3351 171.896 28.3835 171.974 28.4289C172.454 28.7056 172.916 28.8697 173.347 28.9283C174.372 29.0682 175.23 28.6189 175.762 27.6989C176.073 27.159 176.273 26.4568 176.327 25.6155C176.338 25.4571 176.344 25.2943 176.344 25.1258C176.344 24.9709 176.339 24.816 176.33 24.6594C176.312 24.3311 176.275 23.9989 176.219 23.6663C175.834 21.34 174.592 18.9671 173.014 17.5424C172.788 17.3382 172.556 17.1539 172.318 16.9919C172.205 16.9145 172.09 16.8423 171.974 16.7759C171.875 16.7191 171.777 16.6672 171.681 16.6197C171.654 16.6065 171.626 16.5929 171.599 16.5814C170.944 16.2774 170.332 16.1894 169.792 16.2932C168.872 16.4701 168.163 17.2036 167.824 18.3753C167.681 18.8685 167.604 19.4401 167.604 20.0794Z" fill="#4F46E5"/>
<path opacity="0.5" d="M167.604 20.0794C167.604 20.1833 167.606 20.288 167.611 20.3936C167.726 23.4045 169.481 26.7806 171.681 28.2458C171.702 28.259 171.721 28.2718 171.741 28.285C171.818 28.3351 171.896 28.3835 171.974 28.4289C172.454 28.7056 172.916 28.8697 173.347 28.9283C174.372 29.0682 175.23 28.6189 175.762 27.6989C176.073 27.159 176.273 26.4568 176.327 25.6155C176.338 25.4571 176.344 25.2943 176.344 25.1258C176.344 24.9709 176.339 24.816 176.33 24.6594C176.312 24.3311 176.275 23.9989 176.219 23.6663C175.834 21.34 174.592 18.9671 173.014 17.5424C172.788 17.3382 172.556 17.1539 172.318 16.9919C172.205 16.9145 172.09 16.8423 171.974 16.7759C171.875 16.7191 171.777 16.6672 171.681 16.6197C171.654 16.6065 171.626 16.5929 171.599 16.5814C170.944 16.2774 170.332 16.1894 169.792 16.2932C168.872 16.4701 168.163 17.2036 167.824 18.3753C167.681 18.8685 167.604 19.4401 167.604 20.0794Z" fill="black"/>
<path d="M168.336 19.972C168.331 19.8664 168.329 19.7613 168.329 19.6579C168.329 19.0186 168.407 18.447 168.549 17.9533C168.747 17.27 169.072 16.7367 169.49 16.375C169.588 16.3412 169.689 16.313 169.792 16.2932C170.332 16.1889 170.945 16.2769 171.6 16.5814C171.627 16.5933 171.654 16.6065 171.681 16.6197C171.777 16.6672 171.876 16.7191 171.974 16.7759C172.09 16.8428 172.205 16.9145 172.318 16.9919C172.556 17.1538 172.789 17.3386 173.015 17.5424C174.592 18.9671 175.834 21.34 176.22 23.6663C176.275 23.9989 176.312 24.3311 176.331 24.6594C176.34 24.816 176.344 24.9709 176.344 25.1258C176.344 25.2943 176.339 25.4575 176.328 25.6155C176.273 26.4568 176.073 27.159 175.762 27.6989C175.599 27.9805 175.406 28.2172 175.187 28.4068C174.847 28.5248 174.473 28.5613 174.073 28.5067C173.641 28.4482 173.179 28.2841 172.7 28.0073C172.621 27.962 172.543 27.914 172.466 27.8634C172.446 27.8502 172.427 27.8375 172.407 27.8243C170.206 26.3586 168.452 22.983 168.336 19.972Z" fill="#4F46E5"/>
<path opacity="0.25" d="M168.336 19.972C168.331 19.8664 168.329 19.7613 168.329 19.6579C168.329 19.0186 168.407 18.447 168.549 17.9533C168.747 17.27 169.072 16.7367 169.49 16.375C169.588 16.3412 169.689 16.313 169.792 16.2932C170.332 16.1889 170.945 16.2769 171.6 16.5814C171.627 16.5933 171.654 16.6065 171.681 16.6197C171.777 16.6672 171.876 16.7191 171.974 16.7759C172.09 16.8428 172.205 16.9145 172.318 16.9919C172.556 17.1538 172.789 17.3386 173.015 17.5424C174.592 18.9671 175.834 21.34 176.22 23.6663C176.275 23.9989 176.312 24.3311 176.331 24.6594C176.34 24.816 176.344 24.9709 176.344 25.1258C176.344 25.2943 176.339 25.4575 176.328 25.6155C176.273 26.4568 176.073 27.159 175.762 27.6989C175.599 27.9805 175.406 28.2172 175.187 28.4068C174.847 28.5248 174.473 28.5613 174.073 28.5067C173.641 28.4482 173.179 28.2841 172.7 28.0073C172.621 27.962 172.543 27.914 172.466 27.8634C172.446 27.8502 172.427 27.8375 172.407 27.8243C170.206 26.3586 168.452 22.983 168.336 19.972Z" fill="black"/>
<path d="M168.966 13.7302C171.607 13.4319 173.755 15.6196 175.189 17.5864C177.26 20.6382 178.572 24.504 177.856 28.1996L177.857 28.1917C177.623 29.2191 177.153 30.2505 176.298 30.9043C177.172 30.2636 177.679 29.2336 177.925 28.1987L177.925 28.2053C178.584 25.1803 177.755 22.0018 176.37 19.2953C174.888 16.6171 172.375 13.3659 168.966 13.7302Z" fill="#F5F5F5"/>
<path d="M175.243 25.1684C175.199 23.9941 174.588 23.1717 173.867 22.491L174.213 22.5804L175.212 22.0035C175.167 21.7791 175.104 21.5657 175.032 21.3646C174.898 21.0003 174.719 20.6703 174.512 20.3738C174.145 19.8475 173.688 19.426 173.232 19.1017L173.195 18.0664L171.958 17.3518L170.959 17.9287L170.967 18.1918L170.969 18.2486C170.889 18.2741 170.808 18.3102 170.725 18.3599C170.697 18.3766 170.673 18.3946 170.65 18.4122C170.533 18.4976 169.957 18.7981 169.726 18.9363C169.698 18.953 169.675 18.971 169.651 18.9886C169.387 19.1822 169.244 19.5545 169.267 20.1318C169.264 20.1331 169.264 20.1331 169.264 20.1331C169.289 20.7478 169.484 21.2753 169.766 21.7316C169.79 21.7703 169.818 21.8099 169.842 21.8486L169.85 21.8614C169.878 21.901 169.906 21.941 169.934 21.9806C169.959 22.0154 169.984 22.0497 170.012 22.0827C170.024 22.0968 170.033 22.1122 170.044 22.1236C170.064 22.1505 170.084 22.1773 170.105 22.2002C170.279 22.414 170.469 22.6076 170.659 22.7907C170.745 22.8721 170.833 22.9517 170.922 23.0287L170.467 22.9148L169.468 23.4916C169.734 24.5524 170.375 25.48 171.351 26.1928L171.391 27.2263L172.638 27.9171L173.637 27.3403L173.624 27.0169C173.697 26.9971 173.765 26.9702 173.825 26.9324L173.833 26.928C173.983 26.8299 174.652 26.4634 174.824 26.356L174.832 26.3516C175.118 26.1664 175.266 25.7805 175.243 25.1684Z" fill="#4F46E5"/>
<path opacity="0.15" d="M169.772 18.9099C170.027 18.7603 170.54 18.491 170.648 18.4118C170.675 18.3942 170.698 18.3766 170.724 18.359C170.806 18.3093 170.889 18.2741 170.97 18.2477L170.997 18.9917C170.997 18.9917 170.414 18.5614 169.772 18.9099Z" fill="black"/>
<path opacity="0.45" d="M172.614 24.941C172.626 25.2516 172.447 25.4065 171.928 25.1227C171.377 24.8151 171.055 24.3584 170.962 23.866L169.468 23.4912L170.467 22.917L170.921 23.0283C170.929 23.0371 170.938 23.0428 170.947 23.0516C171.085 23.1748 171.222 23.2918 171.354 23.4032C171.409 23.4472 171.462 23.4912 171.512 23.5352C171.89 23.8458 172.168 24.083 172.344 24.3025C172.458 24.4402 172.534 24.5692 172.575 24.7095C172.599 24.7826 172.611 24.8618 172.614 24.941Z" fill="black"/>
<path opacity="0.2" d="M173.624 27.0204L173.636 27.3425L172.637 27.9167L172.599 26.8857C173.006 27.0441 173.355 27.0939 173.624 27.0204Z" fill="black"/>
<path opacity="0.15" d="M172.195 18.6437L170.959 17.9291L171.958 17.3523L173.197 18.0668L173.232 19.1008C173.689 19.426 174.146 19.8479 174.512 20.3751C174.72 20.6707 174.899 21.0016 175.033 21.3651C175.104 21.567 175.168 21.7782 175.212 22.0035L174.213 22.5803C174.169 22.3546 174.105 22.1408 174.035 21.9419C173.9 21.5758 173.721 21.2476 173.513 20.9519C173.147 20.4248 172.69 20.0028 172.233 19.6777L172.195 18.6437Z" fill="black"/>
<path opacity="0.2" d="M173.232 19.1004C173.66 19.3424 174.042 19.6715 174.355 20.0556C174.665 20.4415 174.913 20.8859 175.033 21.3646C174.814 20.9238 174.557 20.5146 174.251 20.1397C174.101 19.9509 173.936 19.774 173.767 19.6002C173.596 19.4278 173.415 19.2654 173.232 19.1004Z" fill="black"/>
<path opacity="0.35" d="M174.831 26.3529L174.825 26.356C174.652 26.4642 173.985 26.8303 173.832 26.9302C174.119 26.7428 174.269 26.3591 174.245 25.747C174.192 24.3852 173.381 23.4978 172.52 22.7537C171.717 22.0656 171.009 21.6379 170.982 20.9788C170.968 20.5656 171.237 20.5304 171.644 20.7561C172.297 21.1165 172.572 21.7694 172.637 22.1738L173.867 22.4902L173.87 22.4932C174.591 23.1757 175.2 23.9989 175.244 25.1702C175.267 25.7818 175.118 26.165 174.831 26.3529Z" fill="black"/>
<path d="M171.961 23.2892L170.962 23.8656L169.467 23.4925L170.466 22.9156L171.961 23.2892Z" fill="#4F46E5"/>
<path opacity="0.15" d="M171.961 23.2892L170.962 23.8656L169.467 23.4925L170.466 22.9156L171.961 23.2892Z" fill="black"/>
<path d="M172.638 27.9184L172.598 26.8844L173.625 27.0177L173.637 27.3416L172.638 27.9184Z" fill="#4F46E5"/>
<path opacity="0.45" d="M172.638 27.9184L172.598 26.8844L173.625 27.0177L173.637 27.3416L172.638 27.9184Z" fill="black"/>
<path d="M170.967 18.1918L170.995 18.9921C170.995 18.9921 170.385 18.5416 169.726 18.9367C169.698 18.9534 169.674 18.9715 169.65 18.9891C169.386 19.1827 169.244 19.5549 169.266 20.1322C169.264 20.1335 169.264 20.1335 169.264 20.1335C169.288 20.7482 169.483 21.2757 169.765 21.732C169.789 21.7707 169.817 21.8103 169.841 21.8491L169.849 21.8618C169.877 21.9014 169.906 21.9415 169.933 21.9811C169.958 22.0158 169.983 22.0501 170.011 22.0831C170.023 22.0972 170.032 22.1126 170.043 22.1241C170.063 22.1509 170.083 22.1777 170.104 22.2006C170.278 22.4145 170.468 22.6081 170.658 22.7911C170.752 22.88 170.848 22.9675 170.945 23.0507C171.083 23.173 171.223 23.2909 171.355 23.4027C171.41 23.4471 171.462 23.4907 171.513 23.5343C171.89 23.8453 172.167 24.0829 172.344 24.3016C172.457 24.4389 172.535 24.5696 172.575 24.7077C172.597 24.783 172.61 24.86 172.614 24.9392C172.625 25.2507 172.447 25.4073 171.927 25.1209C171.375 24.8155 171.053 24.3579 170.961 23.8651L169.466 23.492C169.733 24.5529 170.374 25.4804 171.349 26.1932L171.389 27.2267L172.637 27.9175L172.597 26.884C173.118 27.0881 173.54 27.1106 173.824 26.9328L173.832 26.9284C174.118 26.7423 174.266 26.3564 174.243 25.7444C174.192 24.3843 173.38 23.4955 172.519 22.7533C171.715 22.0647 171.007 21.637 170.982 20.9765C170.967 20.5643 171.236 20.5304 171.644 20.7561C172.296 21.1151 172.571 21.7672 172.637 22.1733L174.211 22.5799C174.167 22.3555 174.104 22.1421 174.032 21.941C173.898 21.5767 173.719 21.2467 173.512 20.9501C173.144 20.4239 172.688 20.0024 172.232 19.6781L172.195 18.6428L170.958 17.9282L170.967 18.1918Z" fill="#4F46E5"/>
<path opacity="0.1" d="M170.967 18.1918L170.995 18.9921C170.995 18.9921 170.385 18.5416 169.726 18.9367C169.698 18.9534 169.674 18.9715 169.65 18.9891C169.386 19.1827 169.244 19.5549 169.266 20.1322C169.264 20.1335 169.264 20.1335 169.264 20.1335C169.288 20.7482 169.483 21.2757 169.765 21.732C169.789 21.7707 169.817 21.8103 169.841 21.8491L169.849 21.8618C169.877 21.9014 169.906 21.9415 169.933 21.9811C169.958 22.0158 169.983 22.0501 170.011 22.0831C170.023 22.0972 170.032 22.1126 170.043 22.1241C170.063 22.1509 170.083 22.1777 170.104 22.2006C170.278 22.4145 170.468 22.6081 170.658 22.7911C170.752 22.88 170.848 22.9675 170.945 23.0507C171.083 23.173 171.223 23.2909 171.355 23.4027C171.41 23.4471 171.462 23.4907 171.513 23.5343C171.89 23.8453 172.167 24.0829 172.344 24.3016C172.457 24.4389 172.535 24.5696 172.575 24.7077C172.597 24.783 172.61 24.86 172.614 24.9392C172.625 25.2507 172.447 25.4073 171.927 25.1209C171.375 24.8155 171.053 24.3579 170.961 23.8651L169.466 23.492C169.733 24.5529 170.374 25.4804 171.349 26.1932L171.389 27.2267L172.637 27.9175L172.597 26.884C173.118 27.0881 173.54 27.1106 173.824 26.9328L173.832 26.9284C174.118 26.7423 174.266 26.3564 174.243 25.7444C174.192 24.3843 173.38 23.4955 172.519 22.7533C171.715 22.0647 171.007 21.637 170.982 20.9765C170.967 20.5643 171.236 20.5304 171.644 20.7561C172.296 21.1151 172.571 21.7672 172.637 22.1733L174.211 22.5799C174.167 22.3555 174.104 22.1421 174.032 21.941C173.898 21.5767 173.719 21.2467 173.512 20.9501C173.144 20.4239 172.688 20.0024 172.232 19.6781L172.195 18.6428L170.958 17.9282L170.967 18.1918Z" fill="#E2E8F0"/>
<path d="M174.244 25.7448C174.21 25.2476 174.074 24.7601 173.834 24.3272C173.6 23.8911 173.276 23.5096 172.919 23.1669C172.566 22.8171 172.173 22.5122 171.792 22.1892C171.604 22.026 171.417 21.8574 171.258 21.6625C171.102 21.4663 170.986 21.2287 170.983 20.9766C170.999 21.2282 171.124 21.4544 171.285 21.6396C171.447 21.8266 171.636 21.9886 171.828 22.1456C172.215 22.458 172.61 22.7652 172.97 23.1141C173.325 23.4643 173.656 23.8515 173.884 24.3008C173.998 24.5243 174.09 24.7592 174.151 25.0026C174.208 25.2468 174.237 25.4958 174.244 25.7448Z" fill="#E2E8F0"/>
<path d="M172.196 18.6432L173.195 18.0664L173.233 19.1013L172.234 19.6781L172.196 18.6432Z" fill="#4F46E5"/>
<path opacity="0.35" d="M172.196 18.6432L173.195 18.0664L173.233 19.1013L172.234 19.6781L172.196 18.6432Z" fill="black"/>
<path d="M170.959 17.9287L172.082 18.7035L172.234 19.6781L172.196 18.6432L170.959 17.9287Z" fill="#FAFAFA"/>
<path d="M171.35 26.1936L171.491 27.1625L172.638 27.9184L171.39 27.2272L171.35 26.1936Z" fill="#FAFAFA"/>
<path opacity="0.15" d="M169.467 23.4925C169.515 23.6835 169.58 23.8683 169.651 24.0495L170.06 23.6403L169.467 23.4925Z" fill="#E2E8F0"/>
<path opacity="0.15" d="M174.24 25.6991C174.211 25.1007 174.032 24.5943 173.768 24.1512L171.364 26.5549L171.39 27.2277L172.241 27.6985L172.615 27.3245L172.598 26.8849C172.719 26.9324 172.834 26.9689 172.943 26.9962L174.24 25.6991Z" fill="#E2E8F0"/>
<path opacity="0.15" d="M169.279 20.3386C169.314 20.6681 169.398 20.9709 169.517 21.2507L172.15 18.6169L171.422 18.1958L170.983 18.6349L170.995 18.9922C170.995 18.9922 170.903 18.9249 170.753 18.865L169.279 20.3386Z" fill="#E2E8F0"/>
<path opacity="0.15" d="M169.85 21.8623C169.878 21.9019 169.906 21.9419 169.934 21.9815C169.959 22.0163 169.983 22.0506 170.011 22.0836C170.023 22.0977 170.033 22.1131 170.043 22.1245C170.064 22.1514 170.083 22.1782 170.104 22.2011C170.279 22.4149 170.469 22.6085 170.659 22.7916C170.702 22.8325 170.746 22.8708 170.79 22.9108L171.661 22.0401C171.269 21.6977 170.998 21.3809 170.983 20.977C170.968 20.5647 171.237 20.5309 171.645 20.7566C171.944 20.9211 172.16 21.1482 172.317 21.384L173.175 20.5256C172.882 20.1925 172.558 19.9096 172.233 19.6786L172.219 19.2883L169.769 21.7387C169.792 21.7756 169.818 21.8135 169.841 21.85L169.85 21.8623Z" fill="#E2E8F0"/>
<path opacity="0.6" d="M48.6592 197.501C61.5032 197.501 71.9154 191.489 71.9154 184.074C71.9154 176.658 61.5032 170.647 48.6592 170.647C35.8151 170.647 25.403 176.658 25.403 184.074C25.403 191.489 35.8151 197.501 48.6592 197.501Z" fill="#4F46E5"/>
<path d="M32.1508 119.222L35.6228 110.392L35.086 99.5306C32.8821 99.7128 31.3368 100.513 30.173 103.239C29.0092 105.966 26.6785 114.748 26.2328 116.793C25.7967 119.092 25.7285 119.985 25.8315 122.208C25.9384 124.524 26.9548 128.71 27.3381 130.989C27.5154 132.043 27.6095 133.062 27.7138 134.135C27.8225 135.254 28.2181 136.301 28.479 137.395C28.5995 137.9 28.9076 138.388 29.2719 138.757C29.5117 139 29.8566 139.051 30.0846 139.28C30.3204 139.516 30.3424 139.871 30.6675 140.069C31.0292 140.288 31.4723 140.206 31.786 140.427C32.1143 140.658 32.3809 140.978 32.7505 141.176C33.0831 141.355 33.334 141.436 33.5724 141.746C33.7682 142 33.9332 142.546 34.3253 142.539C34.7648 142.532 34.8695 142.116 34.9219 141.753C35.0143 141.114 34.7323 140.273 34.3904 139.735C33.9944 139.11 33.7489 138.402 33.2812 137.825C32.8574 137.303 32.6471 136.565 32.5032 135.906C32.4029 135.445 32.4922 134.872 33.0519 135.183C33.711 135.549 34.382 136.262 35.2145 136.188C35.7905 136.137 35.8587 135.692 35.5582 135.291C35.0548 134.619 34.6311 133.949 34.2276 133.206C33.8263 132.466 33.5082 131.69 33.0871 130.963C32.8684 130.586 32.5991 130.222 32.3294 129.873C31.5757 128.899 31.7095 127.665 31.7095 126.509C31.7099 124.894 32.006 121.284 32.1508 119.222Z" fill="#C8856A"/>
<path d="M35.1512 98.9225C31.9458 99.2011 30.3516 101.238 29.2648 104.451C28.1508 107.743 26.5179 113.649 26.1879 115.216C25.8584 116.783 25.4232 118.617 25.5143 120.996C25.6027 123.307 26.3384 127.156 26.3384 127.156C26.3384 127.156 27.1779 127.662 28.9652 127.634C31.4618 127.596 31.9563 126.838 31.9563 126.838L32.3818 119.26L35.8877 110.506L35.1512 98.9225Z" fill="#37474F"/>
<path d="M32.6335 182.024C32.6335 182.591 32.5283 182.811 33.2231 183.322C33.9178 183.835 35.4244 184.07 36.5693 183.762C37.5725 183.491 37.9364 183.204 38.419 182.645C38.9677 182.011 39.2924 181.282 39.4935 181.026C39.6946 180.77 40.6261 180.281 41.525 179.881C42.471 179.461 44.2851 178.623 44.9346 177.087C45.5844 175.551 45.1361 174.453 45.1361 174.453L32.6335 182.024Z" fill="#263238"/>
<path d="M38.6817 174.23C36.8487 175.428 35.3074 178.433 32.8002 177.52C32.6748 178.991 32.2837 180.578 32.633 182.024C33.7022 183.344 36.0422 183.597 37.3886 182.648C38.0666 182.07 38.4468 181.392 39.1028 180.782C39.622 180.299 40.2261 179.997 40.905 179.683C41.5263 179.396 42.5801 178.823 43.0857 178.476C47.1368 175.489 45.1264 170.019 38.6817 174.23Z" fill="#455A64"/>
<path d="M45.1431 188.913C45.1431 189.526 45.1836 189.989 45.5593 190.249C45.9351 190.509 48.7449 190.971 49.4925 191.058C50.2401 191.145 50.3479 190.654 50.8719 190.827C51.3959 191 52.6174 191.896 54.4478 192.301C56.2786 192.705 57.7808 193.138 60.3235 192.301C62.8663 191.463 63.1171 190.478 63.0837 189.618C63.0502 188.759 45.1431 188.913 45.1431 188.913Z" fill="#263238"/>
<path d="M45.5105 183.174C45.1009 184.936 44.6657 187.572 45.1431 188.913C45.6544 189.421 47.3726 189.72 48.8703 189.921C50.277 190.11 51.5561 190.48 52.8334 191.155C55.7401 192.368 60.8515 192.81 62.8883 190.074C64.9215 186.421 54.3395 187.319 53.0415 183.092C52.569 181.553 47.4324 183.59 45.5105 183.174Z" fill="#455A64"/>
<path d="M31.8217 162.397C33.2363 147.378 32.5063 135.377 33.8558 123.286C33.8558 123.286 54.9476 122.761 55.466 129.924C55.466 129.924 55.7867 155.463 55.6208 158.619C55.546 161.816 53.6307 181.754 53.6307 184.008C48.3908 186.608 45.1431 184.644 45.1431 184.644C45.1761 181.735 42.9009 170.43 44.1342 163.336L43.2964 151.294C43.2964 151.294 39.7008 172.861 39.094 178.677C37.5461 180.971 33.1558 180.436 32.4236 179.051C32.4236 179.051 31.3254 166.818 31.8217 162.397Z" fill="#37474F"/>
<path d="M43.2969 151.294L42.3672 139.698C42.3672 139.698 38.3957 138.966 36.0963 136.092C36.7233 138.391 39.2185 140.388 40.7994 140.949L42.3786 150.792L41.7239 159.893L43.2969 151.294Z" fill="#263238"/>
<path d="M40.4923 149.019C40.2442 152.996 39.9868 155.319 39.6392 157.26C39.0966 160.29 37.5663 176.227 37.2073 180.001C37.3274 179.963 37.4453 179.921 37.5606 179.873C37.9452 175.831 39.4403 160.296 39.9731 157.32C40.3242 155.36 40.5821 153.027 40.8311 149.041C41.019 146.04 41.1959 143.205 41.3926 141.732L41.0555 141.687C40.858 143.172 40.6806 146.012 40.4923 149.019Z" fill="#263238"/>
<path d="M50.9687 185.014C51.4228 178.213 52.5092 162.772 52.4212 155.892C52.3164 147.678 52.0406 134.894 51.3748 129.587L51.0378 129.629C51.7018 134.919 51.9768 147.689 52.0815 155.897C52.1699 162.802 51.0717 178.374 50.6224 185.097C50.7368 185.071 50.8517 185.045 50.9687 185.014Z" fill="#263238"/>
<path d="M51.7026 138.033C53.559 136.161 53.302 132.245 53.1366 129.803C53.123 129.599 53.1098 129.405 53.0988 129.223L53.4376 129.202C53.4486 129.383 53.4618 129.576 53.4754 129.78C53.651 132.384 53.9365 136.625 51.7022 138.507L51.7026 138.033Z" fill="#263238"/>
<path d="M47.4043 96.844L46.5573 101.941L39.0619 102.006L40.2534 96.514L47.4043 96.844Z" fill="#C8856A"/>
<path d="M49.6698 87.7783C50.2242 88.4462 51.9486 90.4614 52.0229 90.8543L50.6814 91.7251L49.6698 87.7783Z" fill="#AF6152"/>
<path d="M45.6517 82.7108C47.8033 82.4221 49.2426 83.915 49.9906 88.4902C50.0196 88.6692 50.2937 88.9447 50.5133 89.6267C51.4553 92.5514 51.0452 95.37 50.5665 96.1294C49.3429 97.1674 47.963 97.5788 45.9452 97.4604C44.407 97.3702 40.4822 97.0068 38.4428 94.9876C36.0448 92.6116 34.7696 88.9693 36.3774 87.0201C38.6403 84.2772 44.4664 82.8701 45.6517 82.7108Z" fill="#C8856A"/>
<path d="M50.5665 96.1299C50.3012 96.5501 48.7718 97.4767 47.2903 97.5159L47.4038 96.7058C47.4038 96.7058 48.8813 96.7072 50.5665 96.1299Z" fill="#AF6152"/>
<path d="M46.2325 90.8996C46.1111 91.2525 45.7485 91.2859 45.5316 91.0347C45.2716 90.7328 45.0652 90.4055 44.7396 90.1639C44.363 89.8845 43.8922 89.7103 43.4253 89.7578C41.6601 89.9386 42.1529 92.2574 43.0425 93.0455C44.4985 94.3351 45.2236 93.1691 45.2236 93.1691C45.2236 93.1691 46.3025 95.3964 44.8505 96.7525C44.8505 96.7525 42.1929 97.515 40.1605 96.9421C38.6091 95.3564 37.693 94.772 36.6423 93.4006C34.1528 90.1512 33.7295 86.0046 35.2457 85.0269C35.1283 83.8534 35.7183 82.0701 38.1053 80.9864C40.3801 79.9537 41.9219 80.0096 43.5873 80.0584C45.2527 80.1073 47.3167 80.8122 48.8263 79.4816C49.2377 80.3968 49.1678 81.5122 48.6459 82.3689C49.1313 82.1352 49.7833 82.3548 50.0289 82.8344C50.2744 83.3136 50.0707 83.9714 49.5977 84.2283C49.9422 84.388 50.112 84.8289 49.9998 85.1919C49.8876 85.5549 49.5299 85.8154 49.1519 85.8532C48.752 85.8933 48.5007 85.8612 48.1052 85.8141C47.6559 87.1856 46.1353 87.7008 45.2232 87.6669C46.2911 88.884 46.453 90.2594 46.2325 90.8996Z" fill="#263238"/>
<path d="M48.6706 102.119C47.1086 100.713 47.5803 100.637 46.5665 99.8034C45.3055 98.7668 39.7874 97.4772 39.3444 97.9268C38.5022 98.7822 37.7159 99.1342 37.7159 99.1342C37.7159 99.1342 37.9782 99.9812 41.309 100.787C44.4862 101.556 45.7415 101.449 48.6706 102.119Z" fill="#F0F0F0"/>
<path d="M38.7178 98.4896C40.5508 98.7967 43.8583 99.6877 45.5985 100.162C47.3387 100.637 49.7213 102.214 49.7213 102.214C49.7213 102.214 53.0635 103.668 53.4758 104.126C53.8881 104.584 54.7272 106.691 55.0633 111.27C55.3995 115.85 55.6692 133.223 55.6692 133.223C55.6692 133.223 54.3866 133.606 53.4582 133.762L52.8207 128.55L52.1158 134.016C52.1158 134.016 45.8273 134.443 40.5605 133.344C35.2937 132.245 32.9582 128.856 32.9582 128.856C32.9582 128.856 33.7427 119.606 33.5337 117.728C33.3247 115.851 31.676 107.928 31.8591 104.813C32.0421 101.699 33.2283 99.2086 35.1511 98.9234C37.4928 98.5754 38.7178 98.4896 38.7178 98.4896Z" fill="#455A64"/>
<path d="M37.825 99.44C38.3007 99.6266 38.7895 99.7713 39.2801 99.9121C39.7685 100.059 40.2591 100.198 40.7515 100.331C41.7358 100.597 42.7196 100.866 43.7083 101.109C44.6943 101.365 45.69 101.548 46.6968 101.721L49.72 102.214C48.6979 102.165 47.6797 102.067 46.6638 101.941C45.6491 101.82 44.6323 101.641 43.6383 101.391C42.6457 101.138 41.6601 100.862 40.6877 100.543C39.7192 100.22 38.738 99.909 37.825 99.44Z" fill="#37474F"/>
<path d="M39.7241 105.791C40.146 107.852 40.4778 109.933 40.6978 112.028C40.9151 114.123 41.0071 116.238 40.8997 118.346L40.5451 124.645L40.344 127.793L40.1126 130.94L40.2023 127.786L40.3225 124.634L40.6107 118.331C40.7413 116.239 40.6459 114.14 40.4769 112.049C40.3929 111.002 40.2793 109.958 40.1482 108.916C40.0259 107.873 39.8737 106.832 39.7241 105.791Z" fill="#37474F"/>
<path d="M53.0697 126.681C54.8785 126.392 55.4901 125.813 55.4901 125.813V127.152C55.4901 127.152 54.1552 127.85 53.0697 127.899V126.681Z" fill="#37474F"/>
<path d="M46.9709 146.489L46.9163 162.713C46.9137 163.5 47.4685 163.956 48.147 164.358L49.8502 165.351C50.3206 165.625 50.5828 165.718 51.1821 165.617C51.4443 165.575 51.8848 165.363 52.0942 165.247C52.1083 165.243 52.1189 165.236 52.1299 165.229L52.2223 165.176L69.6947 155.167C70.9715 154.436 71.7609 153.079 71.7657 151.607L71.8159 136.834C71.8172 136.498 71.5809 136.086 71.2875 135.915L68.3813 134.226C68.0913 134.055 67.6165 134.054 67.3257 134.223L47.5055 145.578C47.3563 145.658 47.2247 145.807 47.1288 145.97C47.0325 146.135 46.9713 146.323 46.9709 146.489Z" fill="#37474F"/>
<path d="M46.9709 146.489L46.9163 162.713C46.9137 163.5 47.4685 163.956 48.147 164.358L49.8502 165.351C50.3206 165.625 50.5828 165.718 51.1821 165.617C51.4443 165.575 51.8848 165.363 52.0942 165.247V165.24C51.4131 165.556 50.8789 165.2 50.882 164.396L50.9335 149.11C50.9344 148.855 51.0237 148.572 51.1702 148.321L47.1288 145.969C47.0325 146.135 46.9713 146.323 46.9709 146.489Z" fill="#263238"/>
<path d="M50.9326 149.11C50.9344 148.602 51.2965 147.979 51.7378 147.726L70.4708 136.994C71.2113 136.57 71.8146 136.921 71.8119 137.775L71.7666 151.606C71.7618 153.077 70.9724 154.434 69.6955 155.166L52.2223 165.176C51.4817 165.601 50.8785 165.249 50.8811 164.396L50.9326 149.11Z" fill="#455A64"/>
<path d="M69.3233 134.773L49.4678 146.261C48.8994 146.59 48.5447 147.202 48.5425 147.859L48.4862 164.556L48.7876 164.732L48.8444 147.86C48.8461 147.31 49.1431 146.798 49.6188 146.522L69.6234 134.948L69.3233 134.773Z" fill="#4F46E5"/>
<path d="M62.2776 136.823L62.2692 139.336L63.25 139.906L63.261 136.57C63.2614 136.398 63.1422 136.329 62.9926 136.414L62.2776 136.823Z" fill="#4F46E5"/>
<path opacity="0.3" d="M62.2776 136.823L62.2692 139.336L63.25 139.906L63.261 136.57C63.2614 136.398 63.1422 136.329 62.9926 136.414L62.2776 136.823Z" fill="black"/>
<path d="M55.3643 139.282L55.3506 143.35L56.2865 143.896L56.9192 143.532L56.9302 140.196C56.9307 140.025 57.053 139.816 57.2008 139.73L61.996 136.984L62.9917 136.414C63.1413 136.329 63.261 136.397 63.2601 136.57L63.2491 139.906L63.8836 139.543L63.8972 135.477C63.8972 135.46 63.8959 135.441 63.8928 135.424C63.873 135.264 63.7617 135.086 63.6279 135.009L63.2288 134.776C63.0814 134.69 62.8403 134.689 62.6907 134.774L55.6344 138.816C55.4853 138.903 55.3647 139.111 55.3643 139.282Z" fill="#4F46E5"/>
<path opacity="0.2" d="M56.3002 139.829L56.2865 143.896L56.9192 143.532L56.9302 140.196C56.9307 140.025 57.053 139.816 57.2008 139.73L61.996 136.984L62.9917 136.414C63.1413 136.329 63.261 136.397 63.2601 136.57L63.2491 139.906L63.8836 139.543L63.8972 135.477C63.8972 135.46 63.8959 135.441 63.8928 135.424C63.8699 135.292 63.7595 135.244 63.627 135.32L56.5708 139.362C56.4229 139.449 56.301 139.657 56.3002 139.829Z" fill="black"/>
<path d="M62.663 135.969C62.1258 134.045 62.0263 133.47 61.7865 132.101C61.5472 130.732 61.6154 129.347 61.4873 126.781L55.6208 128.282C55.6208 128.282 56.2025 130.165 56.5448 132.048C56.7943 133.419 56.3028 134.658 56.3116 136.015C56.3156 136.623 56.4467 137.244 56.7873 137.747C56.9703 138.017 57.2083 138.246 57.3896 138.517C57.746 139.05 57.7319 139.427 57.2009 139.73C56.8669 139.92 56.9298 140.364 56.9298 140.364C57.0873 140.557 57.3289 140.702 57.5643 140.772C57.6686 140.803 57.7768 140.819 57.8855 140.821C57.9964 140.822 58.1235 140.766 58.2278 140.774C58.3369 140.782 58.4408 140.86 58.5627 140.868C58.6859 140.876 58.8108 140.853 58.9309 140.83C59.1597 140.786 59.4022 140.731 59.5681 140.568C59.7339 140.404 59.8017 140.149 59.9957 140.021C60.2619 139.844 60.6161 139.987 60.9351 139.967C61.2506 139.947 61.5481 139.746 61.6845 139.46C61.7553 139.312 61.7909 139.136 61.9199 139.033C62.0527 138.928 62.2415 138.937 62.3986 138.874C62.5847 138.799 62.7176 138.626 62.7889 138.438C63.0911 137.648 62.8821 136.755 62.663 135.969Z" fill="#C8856A"/>
<path d="M55.0968 104.692C56.6438 105.473 57.0332 105.792 57.8815 107.52C58.7299 109.248 59.8554 113.983 60.1814 116.833C60.5075 119.682 61.347 122.419 61.5529 125.318C61.7588 128.217 61.7346 130.555 61.7346 130.555C61.7346 130.555 60.8714 131.089 59.0533 131.316C57.2356 131.543 56.2399 131.316 56.2399 131.316C56.2399 131.316 54.072 123.317 53.5088 121.128C52.9461 118.94 50.9181 113.001 50.9181 113.001C50.2366 109.138 51.1799 104.79 52.2407 103.387C52.2407 103.387 53.5498 103.911 55.0968 104.692Z" fill="#37474F"/>
<path d="M52.4027 60.896C52.4084 63.4652 51.41 65.8042 49.7842 67.5541L48.9786 68.3223C47.2815 69.7713 45.0842 70.653 42.684 70.6587C37.3124 70.6702 32.9327 66.3115 32.9212 60.94C32.9155 58.5398 33.7876 56.3367 35.2277 54.6353L35.9955 53.827C37.7353 52.1906 40.0708 51.183 42.6399 51.1773C48.0115 51.1654 52.3912 55.5241 52.4027 60.896Z" fill="#E2E8F0"/>
<path d="M42.6378 50.3514C36.8113 50.3642 32.0795 55.1166 32.0958 60.9422C32.1072 66.1698 35.9339 70.5104 40.9266 71.3381L42.1194 74.3965C42.3232 74.9188 43.0628 74.917 43.2643 74.3939L44.444 71.3297C49.4336 70.4783 53.24 66.1206 53.2277 60.8956C53.2145 55.0691 48.4642 50.3386 42.6378 50.3514ZM52.4027 60.896C52.4084 63.4652 51.41 65.8042 49.7842 67.5541L48.9786 68.3223C47.282 69.7712 45.0842 70.653 42.684 70.6587C37.3124 70.6702 32.9327 66.3115 32.9212 60.94C32.9155 58.5398 33.7876 56.3363 35.2277 54.6352L35.9955 53.827C37.7353 52.1906 40.0708 51.183 42.64 51.1773C48.0115 51.1654 52.3912 55.524 52.4027 60.896Z" fill="#455A64"/>
<path opacity="0.7" d="M52.4027 60.896C52.4084 63.4652 51.41 65.8042 49.7842 67.5541L48.9786 68.3223C47.282 69.7713 45.0842 70.653 42.684 70.6587C37.3124 70.6702 32.9327 66.3115 32.9212 60.94C32.9155 58.5398 33.7876 56.3363 35.2277 54.6353L35.9955 53.827C37.7353 52.1906 40.0708 51.183 42.6399 51.1773C48.0115 51.1654 52.3912 55.5241 52.4027 60.896Z" fill="#E2E8F0"/>
<path d="M42.8837 55.6226L44.2235 58.9499L47.8021 59.1963C48.0172 59.2112 48.1043 59.4801 47.9393 59.6187L45.1889 61.9212L46.0605 65.4007C46.1129 65.6097 45.8841 65.776 45.7015 65.6616L42.662 63.7573L39.6225 65.6616C39.4399 65.776 39.2111 65.6097 39.2634 65.4007L40.1351 61.9212L37.3846 59.6187C37.2192 59.4805 37.3067 59.2112 37.5219 59.1963L41.1004 58.9503L42.4402 55.623C42.5203 55.4228 42.8032 55.4228 42.8837 55.6226Z" fill="#4F46E5"/>
</svg>
