<svg width="35" height="35" viewBox="0 0 35 35" fill="none" xmlns="http://www.w3.org/2000/svg">
<path d="M8.75 24.0625C8.75 22.8544 9.72938 21.875 10.9375 21.875C12.1456 21.875 13.125 22.8544 13.125 24.0625V26.25C13.125 27.4581 12.1456 28.4375 10.9375 28.4375C9.72938 28.4375 8.75 27.4581 8.75 26.25V24.0625Z" fill="#E2E8F0"/>
<path d="M21.875 15.3125C21.875 14.1044 22.8544 13.125 24.0625 13.125C25.2706 13.125 26.25 14.1044 26.25 15.3125V26.25C26.25 27.4581 25.2706 28.4375 24.0625 28.4375C22.8544 28.4375 21.875 27.4581 21.875 26.25V15.3125Z" fill="#E2E8F0"/>
<path d="M15.3125 19.6875C15.3125 18.4794 16.2919 17.5 17.5 17.5C18.7081 17.5 19.6875 18.4794 19.6875 19.6875V26.25C19.6875 27.4581 18.7081 28.4375 17.5 28.4375C16.2919 28.4375 15.3125 27.4581 15.3125 26.25V19.6875Z" fill="#E2E8F0"/>
<path d="M8.75 3.28125H6.5625C4.14625 3.28125 2.1875 5.24 2.1875 7.65625V30.625C2.1875 33.0412 4.14626 35 6.5625 35H28.4375C30.8537 35 32.8125 33.0412 32.8125 30.625V7.65625C32.8125 5.24 30.8537 3.28125 28.4375 3.28125H26.25V5.46875H28.4375C29.6456 5.46875 30.625 6.44813 30.625 7.65625V30.625C30.625 31.8331 29.6456 32.8125 28.4375 32.8125H6.5625C5.35438 32.8125 4.375 31.8331 4.375 30.625V7.65625C4.375 6.44813 5.35438 5.46875 6.5625 5.46875H8.75V3.28125Z" fill="#E2E8F0"/>
<path d="M20.7812 2.1875C21.3853 2.1875 21.875 2.67719 21.875 3.28125V5.46875C21.875 6.07281 21.3853 6.5625 20.7812 6.5625H14.2188C13.6147 6.5625 13.125 6.07281 13.125 5.46875V3.28125C13.125 2.67719 13.6147 2.1875 14.2188 2.1875H20.7812ZM14.2188 0C12.4066 0 10.9375 1.46907 10.9375 3.28125V5.46875C10.9375 7.28093 12.4066 8.75 14.2188 8.75H20.7812C22.5934 8.75 24.0625 7.28093 24.0625 5.46875V3.28125C24.0625 1.46907 22.5934 0 20.7812 0H14.2188Z" fill="#E2E8F0"/>
</svg>
