<svg width="35" height="35" viewBox="0 0 35 35" fill="none" xmlns="http://www.w3.org/2000/svg">
<path fill-rule="evenodd" clip-rule="evenodd" d="M2.13568 22.5524C3.50313 21.1849 5.3578 20.4167 7.29167 20.4167H18.9583C20.8922 20.4167 22.7469 21.1849 24.1143 22.5524C25.4818 23.9198 26.25 25.7745 26.25 27.7083V30.625C26.25 31.4304 25.5971 32.0833 24.7917 32.0833C23.9863 32.0833 23.3333 31.4304 23.3333 30.625V27.7083C23.3333 26.548 22.8724 25.4352 22.0519 24.6147C21.2315 23.7943 20.1187 23.3333 18.9583 23.3333H7.29167C6.13135 23.3333 5.01855 23.7943 4.19807 24.6147C3.3776 25.4352 2.91667 26.548 2.91667 27.7083V30.625C2.91667 31.4304 2.26375 32.0833 1.45833 32.0833C0.652918 32.0833 0 31.4304 0 30.625V27.7083C0 25.7745 0.768227 23.9198 2.13568 22.5524Z" fill="white"/>
<path fill-rule="evenodd" clip-rule="evenodd" d="M13.125 5.83334C10.7088 5.83334 8.75001 7.79209 8.75001 10.2083C8.75001 12.6246 10.7088 14.5833 13.125 14.5833C15.5413 14.5833 17.5 12.6246 17.5 10.2083C17.5 7.79209 15.5413 5.83334 13.125 5.83334ZM5.83334 10.2083C5.83334 6.18126 9.09793 2.91667 13.125 2.91667C17.1521 2.91667 20.4167 6.18126 20.4167 10.2083C20.4167 14.2354 17.1521 17.5 13.125 17.5C9.09793 17.5 5.83334 14.2354 5.83334 10.2083Z" fill="white"/>
<path fill-rule="evenodd" clip-rule="evenodd" d="M27.7546 21.7C27.956 20.9202 28.7514 20.4512 29.5312 20.6526C31.0955 21.0565 32.4814 21.9684 33.4712 23.2453C34.4611 24.5222 34.9988 26.0916 35 27.7072L35 30.625C35 31.4304 34.3471 32.0833 33.5417 32.0833C32.7362 32.0833 32.0833 31.4304 32.0833 30.625L32.0833 27.7094C32.0833 27.7093 32.0833 27.7096 32.0833 27.7094C32.0825 26.7402 31.7599 25.7983 31.1661 25.0323C30.5722 24.2661 29.7407 23.7189 28.8021 23.4766C28.0222 23.2753 27.5533 22.4798 27.7546 21.7Z" fill="white"/>
<path fill-rule="evenodd" clip-rule="evenodd" d="M21.9206 4.20286C22.1203 3.42261 22.9148 2.95205 23.695 3.15182C25.2635 3.55341 26.6537 4.4656 27.6465 5.74457C28.6392 7.02355 29.1781 8.59656 29.1781 10.2156C29.1781 11.8347 28.6392 13.4077 27.6465 14.6867C26.6537 15.9656 25.2635 16.8778 23.695 17.2794C22.9148 17.4792 22.1203 17.0086 21.9206 16.2284C21.7208 15.4481 22.1913 14.6537 22.9716 14.4539C23.9127 14.2129 24.7468 13.6656 25.3424 12.8983C25.9381 12.1309 26.2614 11.1871 26.2614 10.2156C26.2614 9.24419 25.9381 8.30038 25.3424 7.53299C24.7468 6.76561 23.9127 6.2183 22.9716 5.97734C22.1913 5.77757 21.7208 4.9831 21.9206 4.20286Z" fill="white"/>
</svg>
